<svg width="72" height="27" viewBox="0 0 72 27" fill="none" xmlns="http://www.w3.org/2000/svg">
<path d="M55.379 7.21867C55.6601 6.99485 55.8007 6.88294 55.9415 6.77103C57.8962 5.12024 60.3993 5.3021 62.0728 7.26066C62.2415 7.45652 62.3258 7.47048 62.4945 7.30262C62.6072 7.17671 62.7336 7.0788 62.846 6.95289C64.1539 5.67983 65.8835 5.3021 67.501 6.01559C69.2024 6.77103 70.1165 8.10002 70.1306 9.96066C70.1587 13.9757 70.1446 17.9767 70.1446 21.9917C70.1446 23.4187 69.2587 24.314 67.8384 24.314C67.2759 24.314 66.7134 24.2721 66.1508 24.328C65.5742 24.384 65.4055 24.2021 65.4055 23.6005C65.4337 19.6834 65.4196 15.7663 65.4196 11.8493C65.4196 11.6814 65.4196 11.5275 65.4196 11.3596C65.4055 10.4503 65.0398 10.0726 64.168 10.0306C63.3804 9.98862 62.8319 10.4643 62.7477 11.2617C62.7336 11.4435 62.7477 11.6394 62.7477 11.8213C62.7477 15.2068 62.7477 18.5783 62.7477 21.9638C62.7477 23.4467 61.89 24.314 60.3993 24.3C59.6398 24.2861 58.6134 24.6358 58.1773 24.1461C57.7976 23.7265 58.0508 22.7332 58.0508 21.9917C58.0508 18.5223 58.0508 15.0389 58.0508 11.5695C58.0508 10.3384 57.2491 9.70885 56.2086 10.1285C55.5618 10.3943 55.3508 10.912 55.3508 11.5835C55.3649 14.829 55.3508 18.0607 55.3508 21.3062C55.3508 21.5581 55.3508 21.8239 55.3508 22.0757C55.3086 23.4327 54.4367 24.2861 53.0869 24.3C52.5244 24.314 51.9618 24.2581 51.3993 24.314C50.7945 24.37 50.6117 24.2021 50.6257 23.5586C50.6539 18.0607 50.6398 12.5627 50.6398 7.0508C50.6398 6.81299 50.6539 6.58914 50.6398 6.35132C50.6117 6.04355 50.7384 5.94564 51.0477 5.94564C52.3415 5.9596 53.6213 5.9596 54.9148 5.94564C55.2384 5.94564 55.3931 6.02955 55.3649 6.37931C55.3367 6.63113 55.3649 6.85495 55.379 7.21867Z" fill="white"/>
<path d="M25.5682 14.8009C25.5682 16.7175 25.5682 18.6201 25.5682 20.5367C25.5541 23.0268 24.2463 24.3139 21.7431 24.3279C20.6463 24.3279 19.5353 24.3419 18.4385 24.3279C16.2166 24.2999 14.5853 22.831 14.4728 20.6206C14.3885 19.0398 14.3744 17.445 14.4588 15.8641C14.5713 13.5978 16.315 12.003 18.6213 11.975C19.226 11.961 19.8447 11.975 20.4494 11.975C21.04 11.961 21.265 11.6253 21.251 11.0657C21.251 10.5061 20.9978 10.2543 20.4353 10.2823C19.8025 10.2963 19.1697 10.2963 18.5369 10.2823C16.99 10.2543 16.1322 9.41493 16.1463 7.90404C16.1463 7.28851 15.865 6.46311 16.2728 6.09936C16.6244 5.79159 17.426 5.98745 18.0307 5.98745C19.6056 5.97345 21.1666 5.98745 22.7416 5.98745C24.415 5.98745 25.5541 7.12061 25.5682 8.79936C25.5822 10.7859 25.5682 12.8004 25.5682 14.8009ZM21.265 17.9766C21.265 17.7388 21.265 17.5149 21.265 17.2771C21.265 15.8501 21.265 15.8501 19.8307 15.9061C19.1135 15.9341 18.7197 16.2978 18.7056 17.0393C18.6916 17.6268 18.6916 18.2004 18.7056 18.788C18.7197 19.7952 19.1697 20.061 20.6322 20.103C21.715 20.131 21.1666 19.3755 21.265 18.9559C21.3213 18.6481 21.251 18.2983 21.265 17.9766ZM38.0837 13.2761C38.0837 15.4165 38.1118 17.5709 38.0696 19.7113C38.0417 21.3621 37.6479 22.8589 36.0448 23.7403C35.3977 24.09 34.6947 24.2859 33.9634 24.2999C32.3462 24.3279 30.7291 24.2999 29.1119 24.3279C28.7181 24.3279 28.6338 24.188 28.6478 23.8382C28.676 23.2507 28.6338 22.6771 28.6619 22.0895C28.69 20.9704 29.5478 20.117 30.6729 20.075C31.4039 20.047 32.1214 20.061 32.8524 20.075C33.4431 20.075 33.7665 19.8372 33.7665 19.2077C33.7665 18.5641 33.4572 18.3403 32.8665 18.3263C31.8823 18.2983 30.8978 18.4382 29.9275 18.1584C28.2541 17.6688 27.0307 16.2838 26.9885 14.5631C26.9041 11.8351 26.9603 9.10716 26.9463 6.37917C26.9463 6.0714 27.0447 5.97345 27.3541 5.98745C28.5072 6.00144 29.6463 6.01544 30.7994 5.98745C31.3056 5.97345 31.2353 6.25326 31.2353 6.56103C31.2353 8.6175 31.2353 10.66 31.2353 12.7165C31.2353 13.6118 31.6572 14.0874 32.4448 14.1154C33.373 14.1434 33.7806 13.7657 33.7806 12.8284C33.7806 10.7579 33.7947 8.67345 33.7665 6.60299C33.7665 6.11336 33.8933 5.97345 34.3854 5.98745C35.4118 6.02944 36.4524 6.0434 37.4792 5.98745C38.0417 5.95949 38.1259 6.16931 38.1118 6.65897C38.0696 8.85535 38.0837 11.0657 38.0837 13.2761ZM2.25252 16.4517C2.25252 14.1714 2.25252 11.8771 2.25252 9.59679C2.25252 7.35843 3.63063 5.95949 5.89471 5.98745C7.37128 6.00144 8.84784 5.81958 10.3103 6.09936C12.1807 6.46311 13.3619 7.90404 13.376 9.82061C13.39 11.8491 13.376 13.8776 13.376 15.9061C13.376 18.4522 11.8713 20.0051 9.3119 20.075C8.53846 20.103 7.76502 20.089 6.99159 20.075C6.64001 20.061 6.48533 20.1729 6.49939 20.5507C6.52753 21.1102 6.51344 21.6698 6.49939 22.2294C6.47128 23.4325 5.61344 24.2999 4.41815 24.3139C3.71502 24.3279 2.82908 24.6077 2.37908 24.202C1.9572 23.8242 2.26658 22.9289 2.25252 22.2574C2.23845 20.3268 2.25252 18.3823 2.25252 16.4517ZM6.49939 13.0242C6.49939 13.4719 6.49939 13.9056 6.49939 14.3533C6.49939 15.9341 6.49939 15.9341 8.08846 15.7942C8.77753 15.7382 9.10097 15.4025 9.11502 14.717C9.12908 13.9336 9.08688 13.1361 9.12908 12.3527C9.21344 10.0864 8.79159 10.3102 6.93533 10.2963C6.59784 10.2963 6.48533 10.3942 6.48533 10.73C6.51344 11.4854 6.49939 12.2548 6.49939 13.0242Z" fill="white"/>
<path d="M42.0589 16.4798C42.0589 14.6192 42.0448 12.7446 42.0729 10.884C42.0729 10.4503 41.9743 10.2684 41.4963 10.2824C40.8633 10.3104 40.0197 10.4923 39.6681 10.1845C39.2321 9.7788 39.5698 8.91145 39.5135 8.23995C39.5135 8.19796 39.5135 8.14201 39.5135 8.10005C39.5135 7.44252 39.3025 6.67311 39.5836 6.18345C39.865 5.69382 40.7228 6.00159 41.3276 5.84772C42.5228 5.53995 43.4228 4.85443 44.1541 3.90316C44.6602 3.25963 45.2932 2.79797 46.1087 2.64408C46.5448 2.56014 46.8118 2.61611 46.7836 3.17568C46.7417 3.95912 46.7839 4.75652 46.7698 5.55392C46.7558 5.88968 46.8822 6.00159 47.2197 5.98759C47.7822 5.97363 48.3448 6.00159 48.9073 5.97363C49.2448 5.95963 49.3572 6.08554 49.3431 6.4213C49.329 7.56843 49.329 8.70159 49.3431 9.84875C49.3431 10.1705 49.2589 10.3384 48.9073 10.2964C48.8369 10.2824 48.7664 10.2964 48.6963 10.2964C48.0774 10.3524 47.2197 10.0166 46.8963 10.4363C46.587 10.828 46.7836 11.6394 46.7836 12.2689C46.7836 16.0741 46.7698 19.8653 46.7977 23.6705C46.7977 24.2021 46.6572 24.37 46.1228 24.328C45.6166 24.2861 45.0963 24.328 44.576 24.314C43.0571 24.2581 42.0589 23.2368 42.0589 21.726C42.0589 19.9772 42.0589 18.2285 42.0589 16.4798Z" fill="white"/>
</svg>
