<svg width="108" height="36" viewBox="0 0 108 36" fill="none" xmlns="http://www.w3.org/2000/svg">
<path fill-rule="evenodd" clip-rule="evenodd" d="M16.7819 0.124907C16.5103 0.241256 16.5011 0.296549 16.5011 1.81574C16.5011 3.31398 16.5143 3.3972 16.7899 3.62712C17.0276 3.82525 17.2282 3.86802 17.9194 3.86802C18.668 3.86802 18.7934 3.836 19.066 3.57482C19.3564 3.29669 19.3721 3.21181 19.3721 1.91923C19.3721 1.16994 19.3196 0.528027 19.2554 0.49279C19.1911 0.457553 19.1143 0.566811 19.0845 0.735573C19.0548 0.904334 19.0459 0.854692 19.0648 0.625207C19.0905 0.312949 19.0415 0.180643 18.8694 0.0988664C18.5657 -0.0454064 17.1381 -0.0275661 16.7819 0.124907ZM17.0628 5.60151C15.0799 5.87366 13.3517 7.30519 12.8013 9.13143C12.3741 10.5489 12.8789 12.2637 14.0519 13.3804C15.818 15.0616 18.7833 15.3314 20.925 14.0059C23.8274 12.2094 23.8306 8.18668 20.931 6.41562C19.8885 5.77903 18.2626 5.43685 17.0628 5.60151ZM3.30498 8.7159C2.43268 9.72326 2.32458 10.1017 2.80118 10.4781C3.04746 10.6726 5.29175 12.0285 7.7631 13.4759C8.92974 14.1593 9.24106 14.1085 9.95421 13.1188C10.3713 12.5401 10.4784 12.146 10.289 11.8871C10.2386 11.8182 8.88805 10.983 7.28775 10.0311C4.01526 8.0844 3.88806 8.0424 3.30498 8.7159ZM18.9375 8.59888C19.5589 8.9722 19.65 9.05708 19.8417 9.44136C20.445 10.6511 19.4377 12.0679 17.9743 12.0679C15.6289 12.0679 14.9257 9.368 17.0483 8.51234C17.7783 8.21803 18.3468 8.24407 18.9375 8.59888ZM28.6094 9.97424C27.0647 10.8935 25.7306 11.7252 25.6447 11.8225C25.386 12.1158 25.4656 12.4747 25.9333 13.1238C26.3211 13.6618 26.7344 13.9516 27.1141 13.9516C27.3372 13.9516 33.1935 10.424 33.272 10.2424C33.3164 10.1395 33.3529 9.97136 33.3529 9.86886C33.3529 9.67583 32.5405 8.52852 32.3023 8.38513C31.8603 8.11908 31.3775 8.32685 28.6094 9.97424ZM91.7725 8.8431C90.6386 9.06771 89.8027 9.64636 89.3554 10.5165C89.1598 10.8969 89.0873 11.3097 89.0493 12.2575L88.9997 13.4998L87.9831 13.5317L86.9666 13.5638V14.5611V15.5583L87.9652 15.6137L88.9638 15.6691L89.0262 20.3785L89.0887 25.0879L90.3185 25.1197C91.1181 25.1404 91.6094 25.1066 91.7228 25.023C91.8671 24.9168 91.8973 24.0926 91.8973 20.2542V15.6137H93.1503H94.4032L94.3674 14.5888L94.3315 13.5638L93.1144 13.5321L91.8973 13.5004V12.6785C91.8973 11.3466 92.1557 11.0942 93.6449 10.9713L94.4563 10.9044L94.4929 9.9728C94.5137 9.4407 94.4747 8.9927 94.402 8.92809C94.2431 8.78703 92.3622 8.72631 91.7725 8.8431ZM97.3273 8.82582C96.4943 8.90084 96.3911 9.06284 96.3911 10.2949C96.3911 11.6744 96.4534 11.7354 97.8606 11.7354C99.1791 11.7354 99.2622 11.6459 99.2622 10.2229C99.2622 9.25299 99.2461 9.1916 98.9332 8.9733C98.6096 8.74726 98.4066 8.72864 97.3273 8.82582ZM102.204 8.91768C102.031 9.07215 102.009 9.83462 102.01 15.6493C102.012 22.6748 102.033 22.9476 102.645 23.7249C103.066 24.2604 103.364 24.4748 104.13 24.7959C104.727 25.0458 105.017 25.089 106.345 25.1248C108.137 25.1731 108.107 25.194 107.875 24.0617C107.655 22.9849 107.505 22.8163 106.768 22.8163C105.926 22.8163 105.468 22.6472 105.185 22.2313C104.963 21.9051 104.939 21.6238 104.91 18.959C104.89 17.132 104.926 15.9649 105.006 15.8324C105.118 15.6468 105.305 15.6172 106.536 15.5897L107.938 15.5583L107.975 14.785C108.04 13.4571 108.101 13.5084 106.451 13.5084C105.271 13.5084 105.018 13.4787 104.955 13.3331C104.914 13.2367 104.879 12.2132 104.879 11.0587V8.95968L104.559 8.85164C104.025 8.67135 102.432 8.71601 102.204 8.91768ZM70.1356 8.92832C70.0898 8.96887 70.0524 12.6036 70.0524 17.0055C70.0524 24.2012 70.0723 25.0155 70.2498 25.076C70.3584 25.113 70.9463 25.1433 71.5562 25.1433C72.5247 25.1433 72.6814 25.1161 72.7942 24.929C72.9916 24.6015 72.9717 9.16323 72.7736 8.98738C72.614 8.84565 70.2874 8.79346 70.1356 8.92832ZM75.7529 8.92832C75.7071 8.96887 75.6696 12.0016 75.6696 15.6675C75.6696 22.969 75.6716 22.9915 76.4097 23.896C76.6639 24.2073 77.0405 24.4619 77.6252 24.7174C78.4221 25.0658 78.5636 25.0902 80.0035 25.127C81.3477 25.1612 81.5444 25.1433 81.6151 24.9797C81.7103 24.7595 81.3382 23.1709 81.1423 22.9615C81.0591 22.8724 80.7272 22.8163 80.2825 22.8163C79.6875 22.8163 79.4907 22.7657 79.1781 22.5322C78.9688 22.3758 78.7402 22.0642 78.6699 21.8396C78.5981 21.6101 78.5418 20.1862 78.5414 18.5908C78.5406 15.2988 78.3381 15.6535 80.2366 15.6222C81.0329 15.609 81.5012 15.5549 81.5626 15.4692C81.7181 15.2522 81.6772 13.7884 81.5116 13.6413C81.4127 13.5536 80.882 13.5084 79.9512 13.5084H78.5407V11.3567C78.5407 10.1733 78.5066 9.12611 78.4649 9.02971C78.4026 8.88566 78.1615 8.85441 77.1126 8.85441C76.4105 8.85441 75.7986 8.88765 75.7529 8.92832ZM47.3336 13.4885C45.0685 14.0163 43.2869 15.6285 42.7256 17.6584C42.5315 18.3602 42.5299 20.1716 42.7227 20.8825C43.0674 22.153 44.0223 23.4485 45.1822 24.219C47.0967 25.4908 49.7659 25.6798 51.9555 24.6986C52.79 24.3246 54.4488 22.9886 54.4488 22.6904C54.4488 22.5145 53.0579 21.265 52.8619 21.265C52.8029 21.265 52.4858 21.4904 52.1572 21.7657C51.2837 22.4983 50.4475 22.8404 49.3782 22.9026C47.7594 22.9969 46.4823 22.3669 45.731 21.1032C45.4296 20.5965 45.3988 20.4318 45.3988 19.3258C45.3988 18.2458 45.4341 18.0454 45.7094 17.5672C46.1489 16.8033 47.077 16.0972 47.9314 15.8767C49.3228 15.5177 50.6839 15.7972 51.9221 16.6964L52.4537 17.0825L52.9207 16.8002C53.5913 16.3949 54.1992 15.8513 54.1992 15.6568C54.1992 15.5649 53.9071 15.2155 53.5499 14.8803C52.1152 13.5335 49.5783 12.9656 47.3336 13.4885ZM56.1474 13.6837C56.1057 13.7801 56.0716 15.6302 56.0716 17.7952C56.0716 21.9476 56.1324 22.5009 56.6962 23.482C57.0122 24.0316 57.8342 24.6667 58.6774 25.0123C59.3028 25.2687 59.5366 25.3005 60.8151 25.3028C62.4849 25.306 63.1682 25.12 64.3045 24.3531C64.6789 24.1003 65.0043 23.9379 65.0277 23.9921C65.051 24.0463 65.1941 24.315 65.3456 24.5892L65.621 25.0879H66.4324H67.2437L67.2783 19.5474C67.2973 16.5002 67.2822 13.8949 67.2447 13.7577C67.1794 13.5188 67.1218 13.5084 65.8644 13.5084C64.9258 13.5084 64.5371 13.5478 64.4995 13.6469C64.4707 13.7231 64.4287 15.381 64.4064 17.3313L64.3657 20.8771L64.0339 21.4412C63.5936 22.1896 62.9649 22.6599 62.1094 22.8807C61.2915 23.0918 60.6203 23.0309 59.9223 22.6827C59.0317 22.2383 59.0128 22.143 58.9427 17.7191C58.9083 15.5556 58.8348 13.7231 58.7793 13.6469C58.7097 13.5516 58.2957 13.5084 57.4507 13.5084C56.4465 13.5084 56.2094 13.5403 56.1474 13.6837ZM96.5409 13.6413C96.325 13.833 96.325 24.8186 96.5409 25.0103C96.6359 25.0946 97.1141 25.1433 97.8472 25.1433C98.8628 25.1433 99.0195 25.1171 99.133 24.929C99.3292 24.6033 99.3096 13.8164 99.1124 13.6413C98.9091 13.4609 96.7441 13.4609 96.5409 13.6413ZM0.323962 16.733C0.140339 16.9129 0.0719336 17.1913 0.0237499 17.9563C-0.0486505 19.1054 0.0332367 19.4678 0.426196 19.7363C0.693703 19.919 1.71979 19.9305 17.9738 19.9328L35.2372 19.9353L35.536 19.649C35.9006 19.2998 35.9286 19.1445 35.8494 17.903C35.7487 16.3215 38.0387 16.5002 17.8797 16.5002H0.561759L0.323962 16.733ZM15.4548 22.4011C15.172 22.6603 14.7999 23.0218 14.6279 23.2045C13.8918 23.9858 11.7236 26.218 11.1959 26.7378C11.1272 26.8055 10.7621 27.1844 10.3845 27.58C10.0069 27.9754 9.54976 28.4491 9.36876 28.6326C6.77458 31.2615 6.51482 31.5739 6.51482 32.0648C6.51482 32.5182 6.56163 32.5814 7.36465 33.2135C8.23832 33.901 8.66985 34.0803 9.17865 33.9669C9.3569 33.9272 10.4883 32.8585 12.0809 31.2257C13.5166 29.7537 14.7953 28.4438 14.9226 28.3146C15.0498 28.1854 15.3869 27.8371 15.6716 27.5406C17.4926 25.6436 17.428 25.6973 17.8838 25.6973C18.3888 25.6973 18.0413 25.3714 22.7273 30.2405C24.3988 31.9774 25.9295 33.5357 26.1288 33.7032C26.6528 34.1438 27.3224 34.1249 27.9497 33.6514C29.6826 32.3437 29.7339 32.1208 28.5826 30.8982C27.728 29.9906 25.8365 28.0287 24.7596 26.9328C24.3792 26.5458 23.8961 26.0415 23.6861 25.8121C22.9466 25.0043 20.1875 22.2052 19.9994 22.0719C19.8688 21.9794 19.2055 21.9358 17.8889 21.9334L15.9689 21.9298L15.4548 22.4011ZM84.2204 22.2839C83.8203 22.4853 83.7873 22.5932 83.7853 23.7133C83.783 25.0702 83.8549 25.1433 85.1928 25.1433C86.5182 25.1433 86.6545 25.0065 86.6545 23.6768C86.6545 22.7826 86.6273 22.6712 86.3481 22.4235C86.0865 22.1912 85.9266 22.1519 85.2558 22.1548C84.8237 22.1566 84.3577 22.2147 84.2204 22.2839ZM16.6765 30.3629C16.4576 30.5775 16.4387 30.7927 16.4387 33.0661C16.4387 36.0807 16.4016 36.0045 17.8623 35.9989C18.6024 35.996 18.8719 35.9495 19.0913 35.7871C19.3674 35.5828 19.3721 35.5363 19.3721 33.0761C19.3721 30.0341 19.4201 30.1297 17.8935 30.1297C17.0566 30.1297 16.8797 30.1636 16.6765 30.3629Z" fill="white"/>
</svg>
