<svg width="140" height="19" viewBox="0 0 140 19" fill="none" xmlns="http://www.w3.org/2000/svg">
<path fill-rule="evenodd" clip-rule="evenodd" d="M111.444 8.99047V17.9809H112.849C114.223 17.9809 114.254 17.9705 114.254 17.5127C114.254 17.2551 114.307 17.0444 114.371 17.0444C114.436 17.0444 115.021 17.3063 115.671 17.6264C116.61 18.0885 117.173 18.2282 118.41 18.305C121.232 18.4805 123.273 17.6275 124.773 15.6462C125.66 14.4754 125.962 13.3936 125.953 11.4254C125.947 10.1147 125.86 9.65127 125.462 8.80317C124.894 7.59227 123.504 6.15267 122.375 5.60593C120.445 4.67205 117.285 4.7672 115.427 5.81515C114.888 6.11933 114.403 6.36825 114.35 6.36825C114.297 6.36825 114.254 4.93539 114.254 3.18412V0H112.849H111.444V8.99047ZM5.33809 0.930889C4.09385 1.20435 3.20285 1.6608 2.31429 2.47987C1.14048 3.56172 0.936507 4.04178 0.936507 5.72187C0.936507 7.43437 1.23787 8.17646 2.30381 9.0888C3.28133 9.92548 4.4765 10.3619 7.42725 10.9594C10.4484 11.5711 11.322 11.9452 11.7307 12.8021C12.0244 13.4177 12.0218 13.4865 11.6833 14.078C11.4623 14.4642 10.9686 14.8822 10.392 15.1714C9.59059 15.5736 9.20718 15.6393 7.67936 15.6367C6.04946 15.6339 5.8056 15.584 4.77619 15.0439C4.15809 14.7196 3.27665 14.0677 2.81739 13.5953C2.35812 13.1229 1.89455 12.7412 1.78723 12.747C1.56528 12.7588 0 14.6848 0 14.9461C0 15.2521 1.97303 16.9924 2.79622 17.4123C5.09385 18.5844 9.6803 18.6779 11.9109 17.5979C12.7123 17.21 13.8455 16.216 14.331 15.475C14.7388 14.8526 15.0161 13.1428 14.8774 12.1055C14.7863 11.4245 14.5859 11.0056 14.0856 10.452C12.9796 9.22778 11.9491 8.81797 8.09948 8.07176C5.54319 7.57616 4.45197 7.08674 4.05695 6.25812C3.78162 5.68104 3.77674 5.53363 4.01293 4.96836C4.39746 4.04796 5.52708 3.51902 7.33941 3.41076C8.64565 3.33265 8.89027 3.37686 9.98467 3.88894C10.6479 4.19949 11.5239 4.75446 11.9311 5.12232L12.6717 5.79136L13.547 4.9028C14.0283 4.41395 14.4222 3.87733 14.4222 3.71007C14.4222 3.21185 12.6119 1.73666 11.4632 1.29894C10.2697 0.844167 6.70652 0.630082 5.33809 0.930889ZM56.9827 1.03952C55.6143 1.40795 54.9689 1.77375 54.0303 2.71213C53.1573 3.58533 52.8218 4.44317 52.8201 5.80766C52.8185 7.077 53.1127 7.86086 53.8934 8.66794C55.0859 9.90094 55.9101 10.2377 59.5087 10.9629C60.7672 11.2165 62.1714 11.6061 62.6293 11.8285C64.3382 12.6588 64.2663 14.1971 62.4746 15.1375C61.6456 15.5726 61.3085 15.6344 59.7492 15.6369C58.1728 15.6393 57.8469 15.5794 56.8928 15.1109C56.3006 14.82 55.3444 14.151 54.7681 13.6243L53.7203 12.6668L53.0943 13.404C51.7344 15.0057 51.7493 15.1246 53.4914 16.5376C55.1491 17.8824 56.5454 18.2647 59.7492 18.2514C61.9374 18.2422 62.4267 18.1823 63.3838 17.8056C64.8022 17.2475 66.3718 15.7612 66.6602 14.7032C66.9642 13.5882 66.9135 11.8618 66.5544 11.1051C65.8951 9.7157 63.9176 8.7438 60.5566 8.15717C57.9762 7.70671 56.5991 7.18207 56.176 6.4885C55.469 5.32891 55.9041 4.45122 57.5334 3.75015C58.3497 3.39896 58.7537 3.34202 59.9282 3.41226C61.5638 3.51003 62.5358 3.93389 63.8031 5.10209L64.6357 5.86947L65.5639 4.95525C66.0743 4.45253 66.492 3.95169 66.492 3.84249C66.492 3.73348 66.2455 3.34502 65.9442 2.9794C65.2761 2.16876 63.5613 1.23713 62.2217 0.956923C60.8698 0.674098 58.1831 0.716429 56.9827 1.03952ZM77.9174 9.55237V18.1682H84.2857H90.6539V16.7635V15.3587H85.9152C82.4793 15.3587 81.1147 15.2969 80.9517 15.134C80.785 14.9673 80.7269 13.107 80.7269 7.92285V0.936507H79.3222H77.9174V9.55237ZM22.437 5.06257C20.4595 5.37049 18.7069 6.6271 17.6869 8.46827C17.1692 9.40253 17.1381 9.58103 17.1381 11.6127C17.1381 13.5938 17.1802 13.8526 17.6637 14.8369C18.2574 16.0459 19.5397 17.2877 20.7599 17.8356C21.284 18.0708 22.1838 18.2366 23.2947 18.3029C25.3024 18.4228 26.6094 18.1248 27.9115 17.2503C28.3649 16.9457 28.8025 16.7376 28.8839 16.7878C28.9652 16.838 29.0317 17.1692 29.0317 17.5237V18.1682H30.4365H31.8413V11.7063V5.24444H30.4365H29.0317V5.80635C29.0317 6.46583 28.8169 6.5076 28.0896 5.98971C26.8793 5.12775 24.512 4.73948 22.437 5.06257ZM39.8016 5.04927C38.5652 5.25399 37.9647 5.50254 36.9557 6.22703C35.0799 7.57428 34.1387 9.74754 34.3303 12.289C34.4627 14.0457 35.0162 15.2716 36.2059 16.4434C37.4846 17.7026 38.6173 18.1885 40.5568 18.3095C42.445 18.4273 43.6491 18.1587 45.0704 17.3029C46.2269 16.6063 46.4423 16.6612 46.448 17.6532C46.4508 18.1658 46.4571 18.1682 47.7619 18.1682H49.073V11.7063V5.24444H47.7619C46.4839 5.24444 46.4508 5.25643 46.4508 5.7185C46.4508 6.39635 46.0432 6.46171 45.2354 5.91348C44.8492 5.65145 44.2273 5.35139 43.8533 5.2465C42.8578 4.9678 40.8761 4.87134 39.8016 5.04927ZM98.2747 5.06501C96.031 5.41301 93.7395 7.32761 93.1535 9.34391C92.7225 10.8262 92.8736 13.6775 93.441 14.7685C94.5788 16.9568 96.3767 18.1149 98.9113 18.2926C100.947 18.4353 102.371 18.1371 103.598 17.3119C104.123 16.9586 104.628 16.6698 104.72 16.6698C104.813 16.6698 104.889 17.007 104.889 17.419V18.1682H106.294H107.698V11.7063V5.24444H106.294C104.929 5.24444 104.889 5.25755 104.889 5.70164C104.889 6.35476 104.594 6.45029 103.963 6.00151C102.732 5.12476 100.383 4.73798 98.2747 5.06501ZM132.292 5.05883C131.039 5.24182 129.853 5.82152 129.063 6.63665C128.567 7.14799 128.417 7.47988 128.346 8.2201C128.208 9.65333 128.423 10.4067 129.177 11.139C129.989 11.9275 131.135 12.3767 133.734 12.924C136.62 13.5318 137.569 14.1162 137.099 14.9957C136.751 15.6442 135.798 15.983 134.295 15.9929C133.142 16.0004 132.689 15.9088 131.767 15.4822C131.149 15.1963 130.458 14.7876 130.231 14.5741L129.817 14.1857L128.872 14.977C128.352 15.4121 127.927 15.836 127.927 15.9188C127.927 16.1596 129.185 17.1973 129.952 17.5882C131.364 18.3089 134.541 18.5801 136.542 18.151C137.613 17.9212 138.851 17.0682 139.491 16.1192C139.819 15.6312 139.914 15.2261 139.914 14.3074C139.914 13.2469 139.853 13.0543 139.323 12.4511C138.495 11.5076 137.602 11.1062 134.982 10.5001C131.66 9.73143 130.879 9.26749 131.201 8.25344C131.387 7.66494 132.767 7.25025 134.257 7.33435C135.279 7.39223 135.847 7.55387 136.962 8.10528C137.739 8.48907 138.42 8.80317 138.476 8.80317C138.532 8.80317 138.898 8.41265 139.289 7.93559L140 7.06782L139.279 6.44467C138.446 5.72487 137.364 5.32798 135.513 5.06407C134.047 4.85523 133.688 4.85467 132.292 5.05883ZM26.7526 8.16691C30.518 10.0433 29.3563 15.1523 25.0491 15.6586C21.2168 16.1091 18.5906 12.4342 20.6241 9.46659C21.4679 8.23508 22.6067 7.72094 24.5466 7.69547C25.5151 7.68273 25.9804 7.78219 26.7526 8.16691ZM43.4686 7.89307C45.7737 8.58384 46.9567 11.3668 45.8417 13.4752C44.2814 16.4258 39.255 16.4258 37.6948 13.4752C36.5925 11.3907 37.6588 8.75672 39.94 7.92941C40.7353 7.64096 42.5641 7.62223 43.4686 7.89307ZM102.892 8.30738C105.081 9.59002 105.467 12.4898 103.694 14.331C102.89 15.1664 101.518 15.7333 100.3 15.7333C97.623 15.7333 95.4198 13.5089 95.792 11.1819C96.1675 8.8337 97.8703 7.61455 100.603 7.73761C101.74 7.78874 102.204 7.90431 102.892 8.30738ZM120.965 8.16691C124.276 9.81684 123.833 14.3701 120.259 15.4316C118.981 15.8111 118.33 15.8111 117.052 15.4316C114.842 14.7753 113.589 12.5333 114.28 10.47C114.871 8.70465 116.478 7.67936 118.655 7.67936C119.714 7.67936 120.187 7.77919 120.965 8.16691Z" fill="white"/>
</svg>
