<svg width="98" height="20" viewBox="0 0 98 20" fill="none" xmlns="http://www.w3.org/2000/svg">
<path d="M14.9173 4.86361L14.8292 7.46714L7.44454 14.8482C10.5292 14.8482 12.4852 14.8205 13.6132 14.7629C13.2862 16.1637 13.0204 17.3088 12.7526 19.0257C11.2692 18.9105 8.95655 18.8817 6.64273 18.8817C4.06347 18.8817 1.80916 18.9101 0 19.0257L0.0602923 16.3926L7.44454 9.04106C4.21185 9.04106 3.02519 9.06914 1.69132 9.09794C1.98691 7.78178 2.1948 6.32341 2.4023 4.86361C4.74509 4.94929 5.66435 4.97737 8.71929 4.97737C11.537 4.97773 13.1375 4.94929 14.9173 4.86361ZM23.3108 4.09033C18.5051 4.09033 14.8292 8.03846 14.8292 12.7606C14.8292 16.3077 17.0529 19.0257 21.3826 19.0257C26.217 19.0257 29.8647 15.0768 29.8647 10.327C29.8651 6.80977 27.6992 4.09033 23.3108 4.09033ZM21.8572 15.2309C20.7891 15.2309 20.167 14.3428 20.167 12.5979C20.167 9.99434 21.3235 7.90634 22.7478 7.90634C23.7849 7.90634 24.4078 8.7653 24.4078 10.5379C24.4074 13.1127 23.2815 15.2309 21.8572 15.2309ZM91.2364 3.89449C86.3692 3.89449 82.644 7.89482 82.644 12.6763C82.644 16.2717 84.8971 19.0257 89.2836 19.0257C94.181 19.0257 97.8768 15.025 97.8768 10.2136C97.8772 6.64885 95.6847 3.89449 91.2364 3.89449ZM89.6723 15.2158C88.6039 15.2158 87.9822 14.3277 87.9822 12.5827C87.9822 9.97922 89.1391 7.89158 90.563 7.89158C91.5997 7.89158 92.2238 8.74982 92.2238 10.5228C92.223 13.0986 91.0959 15.2158 89.6723 15.2158ZM54.8054 9.24086C55.1914 6.80977 54.9839 4.60621 52.0484 4.60621C49.9127 4.60621 47.5996 6.26581 45.9686 9.04106C46.3249 6.75145 46.1166 4.60621 43.2104 4.60621C41.016 4.60621 38.6435 6.35113 37.0117 9.24086C37.4271 7.35266 37.3386 5.20633 37.2196 4.74877C35.5294 5.00653 34.0472 5.14909 31.9706 5.20633C32.0301 6.52285 31.9409 8.23826 31.6738 9.8705L30.9918 14.1614C30.7248 15.8501 30.4281 17.7956 30.1313 19.026H35.6477C35.6778 18.2812 35.8857 17.1087 36.0337 16.0787L36.5082 13.1325C36.8934 11.2144 38.5538 8.95538 39.829 8.95538C40.5705 8.95538 40.5415 9.6131 40.3336 10.8432L39.7996 14.161C39.5318 15.8498 39.2362 17.7952 38.9391 19.0257H44.5145C44.5447 18.2808 44.7224 17.1083 44.8704 16.0784L45.3445 13.1321C45.7306 11.214 47.3921 8.95502 48.6665 8.95502C49.4088 8.95502 49.3794 9.58358 49.2596 10.4425L47.9277 19.0253H53.0162L54.8054 9.24086ZM81.4479 14.534L80.8548 17.9104C79.9351 18.368 78.2148 19.0264 76.2279 19.0264C72.8469 19.0264 72.1656 17.3668 72.6985 13.8478L73.559 8.18282H71.8951L72.3649 4.51585L74.1815 4.43521L74.8639 1.77444L79.9939 0L79.342 4.43485H82.8714C82.7532 4.89241 82.3366 7.41098 82.22 8.18246H78.7778L78.0066 13.4183C77.799 14.7629 77.9185 15.2496 78.9254 15.2496C79.6685 15.2489 80.7647 14.8482 81.4479 14.534ZM61.9884 16.3577C63.8555 16.145 65.1404 14.49 65.4493 12.8387L65.5014 12.3963C64.6992 12.2314 63.5395 12.1057 62.4151 12.2321C61.3443 12.352 60.4533 12.7613 59.9741 13.3539C59.6127 13.7794 59.431 14.2884 59.5117 14.8954C59.6334 15.8044 60.7269 16.4992 61.9884 16.3577ZM60.3992 18.9728C57.764 19.2705 56.0284 18.3086 55.5073 16.1208C55.1804 14.7442 55.6342 13.176 56.4278 12.2404C57.4907 11.0167 59.2227 10.2312 61.3365 9.99398C63.0376 9.79994 64.4709 9.8957 65.8114 10.129L65.867 9.91766C65.9054 9.57962 65.9442 9.2423 65.8905 8.83838C65.7515 7.80122 64.862 7.18346 62.6657 7.43186C61.1838 7.59926 59.774 8.09138 58.6793 8.65154L57.6144 5.69269C59.0982 4.90933 60.9685 4.31317 63.1089 4.07161C67.1974 3.61045 70.0703 4.80925 70.4383 7.56542C70.5358 8.29838 70.5475 9.07526 70.4469 9.78014C69.9219 13.1879 69.5856 15.7522 69.438 17.4708C69.4141 17.7369 69.4161 18.1941 69.4419 18.8421L64.3683 18.8378C64.4764 18.5692 64.5731 18.2049 64.6592 17.748C64.7164 17.4474 64.7571 17.0684 64.7826 16.609C63.7102 17.9619 62.2362 18.7654 60.3992 18.9728Z" fill="white"/>
</svg>
