<svg width="219" height="38" viewBox="0 0 219 38" fill="none" xmlns="http://www.w3.org/2000/svg">
<path fill-rule="evenodd" clip-rule="evenodd" d="M0.0258794 3.31575C0.0258794 2.51807 0.342754 1.75307 0.906796 1.18903C1.47084 0.624984 2.23584 0.308109 3.03352 0.308109H33.015C33.4103 0.307464 33.8018 0.384794 34.1672 0.535673C34.5326 0.686552 34.8646 0.908016 35.1443 1.18739C35.424 1.46676 35.6458 1.79855 35.7971 2.16376C35.9483 2.52898 36.0261 2.92044 36.0259 3.31575V33.2972C36.0263 33.6926 35.9488 34.0842 35.7977 34.4496C35.6467 34.8149 35.425 35.147 35.1455 35.4266C34.866 35.7063 34.5341 35.9281 34.1688 36.0793C33.8035 36.2306 33.412 36.3083 33.0166 36.3081H3.03352C2.63841 36.3081 2.24717 36.2303 1.88216 36.079C1.51715 35.9278 1.18552 35.7061 0.906217 35.4266C0.626911 35.1472 0.405404 34.8154 0.254352 34.4503C0.103301 34.0852 0.0256644 33.6939 0.0258794 33.2988V3.31575ZM14.2753 14.0339H19.1501V16.4819C19.8537 15.0747 21.6537 13.8081 24.3586 13.8081C29.5442 13.8081 30.7732 16.6112 30.7732 21.7543V31.2812H25.5253V22.9259C25.5253 19.9968 24.8217 18.3441 23.0348 18.3441C20.5557 18.3441 19.5248 20.1261 19.5248 22.9259V31.2812H14.2753V14.0339ZM5.27533 31.057H10.5248V13.8081H5.27533V31.057ZM11.2759 8.18229C11.2858 8.63175 11.2058 9.07867 11.0406 9.49681C10.8755 9.91494 10.6285 10.2959 10.3141 10.6173C9.9997 10.9386 9.62429 11.194 9.2099 11.3683C8.7955 11.5426 8.35045 11.6324 7.90088 11.6324C7.45131 11.6324 7.00626 11.5426 6.59186 11.3683C6.17746 11.194 5.80206 10.9386 5.48768 10.6173C5.1733 10.2959 4.92629 9.91494 4.76112 9.49681C4.59596 9.07867 4.51598 8.63175 4.52588 8.18229C4.54531 7.30005 4.90942 6.46049 5.54024 5.84341C6.17106 5.22633 7.01843 4.88079 7.90088 4.88079C8.78333 4.88079 9.6307 5.22633 10.2615 5.84341C10.8923 6.46049 11.2565 7.30005 11.2759 8.18229Z" fill="#0077B7"/>
<path d="M49.3279 12.3081V2.53611H50.5039V11.2721H54.6619V12.3081H49.3279ZM56.7896 3.39011C56.5469 3.39011 56.3696 3.33411 56.2576 3.2221C56.1549 3.10077 56.1036 2.94677 56.1036 2.7601V2.5781C56.1036 2.39144 56.1549 2.2421 56.2576 2.1301C56.3696 2.00877 56.5469 1.94811 56.7896 1.94811C57.0322 1.94811 57.2049 2.00877 57.3076 2.1301C57.4196 2.2421 57.4756 2.39144 57.4756 2.5781V2.7601C57.4756 2.94677 57.4196 3.10077 57.3076 3.2221C57.2049 3.33411 57.0322 3.39011 56.7896 3.39011ZM56.2296 5.08411H57.3496V12.3081H56.2296V5.08411ZM59.7296 12.3081V5.08411H60.8496V6.26011H60.9056C61.0829 5.84944 61.3302 5.52277 61.6476 5.2801C61.9742 5.03744 62.4082 4.91611 62.9496 4.91611C63.6962 4.91611 64.2842 5.15877 64.7136 5.64411C65.1522 6.12011 65.3716 6.79677 65.3716 7.67411V12.3081H64.2516V7.87011C64.2516 6.57277 63.7056 5.92411 62.6136 5.92411C62.3896 5.92411 62.1702 5.95211 61.9556 6.00811C61.7502 6.06411 61.5636 6.14811 61.3956 6.26011C61.2276 6.37211 61.0922 6.51677 60.9896 6.69411C60.8962 6.86211 60.8496 7.06277 60.8496 7.29611V12.3081H59.7296ZM67.6866 1.94811H68.8066V8.51411H68.8626L69.9686 7.28211L72.0126 5.08411H73.3706L70.6966 7.94011L73.6366 12.3081H72.2786L69.8846 8.62611L68.8066 9.73211V12.3081H67.6866V1.94811ZM77.553 12.4761C77.0583 12.4761 76.6103 12.3874 76.209 12.2101C75.817 12.0328 75.4763 11.7808 75.187 11.4541C74.907 11.1181 74.6876 10.7214 74.529 10.2641C74.3796 9.79744 74.305 9.27477 74.305 8.69611C74.305 8.12677 74.3796 7.60877 74.529 7.14211C74.6876 6.67544 74.907 6.27877 75.187 5.95211C75.4763 5.61611 75.817 5.35944 76.209 5.18211C76.6103 5.00477 77.0583 4.91611 77.553 4.91611C78.0383 4.91611 78.4723 5.00477 78.855 5.18211C79.2376 5.35944 79.5643 5.60677 79.835 5.92411C80.1056 6.23211 80.311 6.60077 80.451 7.03011C80.6003 7.45944 80.675 7.93077 80.675 8.44411V8.97611H75.481V9.31211C75.481 9.62011 75.5276 9.90944 75.621 10.1801C75.7236 10.4414 75.8636 10.6701 76.041 10.8661C76.2276 11.0621 76.4516 11.2161 76.713 11.3281C76.9836 11.4401 77.287 11.4961 77.623 11.4961C78.0803 11.4961 78.477 11.3888 78.813 11.1741C79.1583 10.9594 79.4243 10.6514 79.611 10.2501L80.409 10.8241C80.1756 11.3188 79.8116 11.7201 79.317 12.0281C78.8223 12.3268 78.2343 12.4761 77.553 12.4761ZM77.553 5.85411C77.245 5.85411 76.965 5.91011 76.713 6.02211C76.461 6.12477 76.2416 6.27411 76.055 6.47011C75.8776 6.66611 75.7376 6.89944 75.635 7.17011C75.5323 7.43144 75.481 7.72077 75.481 8.03811V8.13611H79.471V7.98211C79.471 7.33811 79.2936 6.82477 78.939 6.44211C78.5936 6.05011 78.1316 5.85411 77.553 5.85411ZM87.1406 11.1321H87.0846C86.6459 12.0281 85.9412 12.4761 84.9706 12.4761C84.5226 12.4761 84.1166 12.3874 83.7526 12.2101C83.3886 12.0328 83.0759 11.7808 82.8146 11.4541C82.5626 11.1274 82.3666 10.7308 82.2266 10.2641C82.0959 9.79744 82.0306 9.27477 82.0306 8.69611C82.0306 8.11744 82.0959 7.59477 82.2266 7.12811C82.3666 6.66144 82.5626 6.26477 82.8146 5.93811C83.0759 5.61144 83.3886 5.35944 83.7526 5.18211C84.1166 5.00477 84.5226 4.91611 84.9706 4.91611C85.4746 4.91611 85.9039 5.02811 86.2586 5.25211C86.6226 5.46677 86.8979 5.80277 87.0846 6.26011H87.1406V1.94811H88.2606V12.3081H87.1406V11.1321ZM85.2786 11.4681C85.5306 11.4681 85.7686 11.4354 85.9926 11.3701C86.2259 11.3048 86.4266 11.2114 86.5946 11.0901C86.7626 10.9594 86.8932 10.8054 86.9866 10.6281C87.0892 10.4414 87.1406 10.2314 87.1406 9.99811V7.31011C87.1406 7.11411 87.0892 6.93211 86.9866 6.76411C86.8932 6.58677 86.7626 6.43744 86.5946 6.31611C86.4266 6.19477 86.2259 6.10144 85.9926 6.03611C85.7686 5.96144 85.5306 5.92411 85.2786 5.92411C84.6439 5.92411 84.1446 6.12477 83.7806 6.52611C83.4166 6.91811 83.2346 7.43611 83.2346 8.08011V9.31211C83.2346 9.95611 83.4166 10.4788 83.7806 10.8801C84.1446 11.2721 84.6439 11.4681 85.2786 11.4681ZM90.2917 12.3081V11.3281H91.6637V3.51611H90.2917V2.53611H94.2117V3.51611H92.8397V11.3281H94.2117V12.3081H90.2917ZM96.2471 12.3081V5.08411H97.3671V6.26011H97.4231C97.6005 5.84944 97.8478 5.52277 98.1651 5.2801C98.4918 5.03744 98.9258 4.91611 99.4671 4.91611C100.214 4.91611 100.802 5.15877 101.231 5.64411C101.67 6.12011 101.889 6.79677 101.889 7.67411V12.3081H100.769V7.87011C100.769 6.57277 100.223 5.92411 99.1311 5.92411C98.9071 5.92411 98.6878 5.95211 98.4731 6.00811C98.2678 6.06411 98.0811 6.14811 97.9131 6.26011C97.7451 6.37211 97.6098 6.51677 97.5071 6.69411C97.4138 6.86211 97.3671 7.06277 97.3671 7.29611V12.3081H96.2471Z" fill="#030A21"/>
<path d="M53.5459 24.7401V34.3081H51.7379V24.7401H48.4099V23.1401H56.8739V24.7401H53.5459ZM60.7254 34.5001C60.1494 34.5001 59.6214 34.3988 59.1414 34.1961C58.672 33.9934 58.272 33.7054 57.9414 33.3321C57.6107 32.9481 57.3547 32.4894 57.1734 31.9561C56.992 31.4121 56.9014 30.8094 56.9014 30.1481C56.9014 29.4868 56.992 28.8894 57.1734 28.3561C57.3547 27.8121 57.6107 27.3534 57.9414 26.9801C58.272 26.5961 58.672 26.3028 59.1414 26.1001C59.6214 25.8974 60.1494 25.7961 60.7254 25.7961C61.3014 25.7961 61.824 25.8974 62.2934 26.1001C62.7734 26.3028 63.1787 26.5961 63.5094 26.9801C63.84 27.3534 64.096 27.8121 64.2774 28.3561C64.4587 28.8894 64.5494 29.4868 64.5494 30.1481C64.5494 30.8094 64.4587 31.4121 64.2774 31.9561C64.096 32.4894 63.84 32.9481 63.5094 33.3321C63.1787 33.7054 62.7734 33.9934 62.2934 34.1961C61.824 34.3988 61.3014 34.5001 60.7254 34.5001ZM60.7254 33.0601C61.3227 33.0601 61.8027 32.8788 62.1654 32.5161C62.528 32.1428 62.7094 31.5881 62.7094 30.8521V29.4441C62.7094 28.7081 62.528 28.1588 62.1654 27.7961C61.8027 27.4228 61.3227 27.2361 60.7254 27.2361C60.128 27.2361 59.648 27.4228 59.2854 27.7961C58.9227 28.1588 58.7414 28.7081 58.7414 29.4441V30.8521C58.7414 31.5881 58.9227 32.1428 59.2854 32.5161C59.648 32.8788 60.128 33.0601 60.7254 33.0601ZM66.4926 25.9881H68.2366V27.3641H68.3166C68.498 26.8628 68.7913 26.4788 69.1966 26.2121C69.6126 25.9348 70.098 25.7961 70.6526 25.7961C71.7086 25.7961 72.5246 26.1801 73.1006 26.9481C73.6766 27.7054 73.9646 28.7721 73.9646 30.1481C73.9646 31.5241 73.6766 32.5961 73.1006 33.3641C72.5246 34.1214 71.7086 34.5001 70.6526 34.5001C70.098 34.5001 69.6126 34.3614 69.1966 34.0841C68.7913 33.8068 68.498 33.4228 68.3166 32.9321H68.2366V37.5081H66.4926V25.9881ZM70.1246 32.9961C70.7326 32.9961 71.218 32.8041 71.5806 32.4201C71.9433 32.0254 72.1246 31.5081 72.1246 30.8681V29.4281C72.1246 28.7881 71.9433 28.2761 71.5806 27.8921C71.218 27.4974 70.7326 27.3001 70.1246 27.3001C69.5913 27.3001 69.1433 27.4334 68.7806 27.7001C68.418 27.9561 68.2366 28.2974 68.2366 28.7241V31.5721C68.2366 31.9988 68.418 32.3454 68.7806 32.6121C69.1433 32.8681 69.5913 32.9961 70.1246 32.9961ZM83.2146 34.5001C82.276 34.5001 81.476 34.3294 80.8146 33.9881C80.164 33.6468 79.604 33.1881 79.1346 32.6121L80.3826 31.4441C80.7773 31.9241 81.2093 32.2868 81.6786 32.5321C82.1586 32.7774 82.7026 32.9001 83.3106 32.9001C84.0253 32.9001 84.564 32.7401 84.9266 32.4201C85.2893 32.1001 85.4706 31.6681 85.4706 31.1241C85.4706 30.6868 85.3426 30.3401 85.0866 30.0841C84.8306 29.8281 84.3773 29.6361 83.7266 29.5081L82.7346 29.3321C81.6466 29.1294 80.8306 28.7721 80.2866 28.2601C79.7426 27.7481 79.4706 27.0441 79.4706 26.1481C79.4706 25.6574 79.5613 25.2148 79.7426 24.8201C79.9346 24.4148 80.196 24.0788 80.5266 23.8121C80.868 23.5348 81.2786 23.3214 81.7586 23.1721C82.2386 23.0228 82.7773 22.9481 83.3746 22.9481C84.2173 22.9481 84.948 23.0974 85.5666 23.3961C86.1853 23.6841 86.7133 24.1054 87.1506 24.6601L85.8866 25.7801C85.5986 25.4068 85.2466 25.1081 84.8306 24.8841C84.4146 24.6601 83.8973 24.5481 83.2786 24.5481C82.6386 24.5481 82.1426 24.6761 81.7906 24.9321C81.4386 25.1881 81.2626 25.5614 81.2626 26.0521C81.2626 26.5214 81.4066 26.8734 81.6946 27.1081C81.9826 27.3321 82.4306 27.5028 83.0386 27.6201L84.0306 27.8281C85.1506 28.0414 85.9666 28.4041 86.4786 28.9161C87.0013 29.4281 87.2626 30.1321 87.2626 31.0281C87.2626 31.5508 87.172 32.0254 86.9906 32.4521C86.8093 32.8788 86.5426 33.2468 86.1906 33.5561C85.8493 33.8548 85.428 34.0894 84.9266 34.2601C84.4253 34.4201 83.8546 34.5001 83.2146 34.5001ZM91.5779 34.3081C90.9699 34.3081 90.5112 34.1534 90.2019 33.8441C89.8925 33.5241 89.7379 33.0761 89.7379 32.5001V27.4121H88.4419V25.9881H89.1459C89.4339 25.9881 89.6312 25.9241 89.7379 25.7961C89.8552 25.6681 89.9139 25.4601 89.9139 25.1721V23.7161H91.4819V25.9881H93.2259V27.4121H91.4819V32.8841H93.0979V34.3081H91.5779ZM101.214 34.3081C100.755 34.3081 100.403 34.1801 100.158 33.9241C99.9123 33.6574 99.763 33.3214 99.7096 32.9161H99.6296C99.4696 33.4388 99.1763 33.8334 98.7496 34.1001C98.323 34.3668 97.8056 34.5001 97.1976 34.5001C96.3336 34.5001 95.667 34.2761 95.1976 33.8281C94.739 33.3801 94.5096 32.7774 94.5096 32.0201C94.5096 31.1881 94.8083 30.5641 95.4056 30.1481C96.0136 29.7321 96.899 29.5241 98.0616 29.5241H99.5656V28.8201C99.5656 28.3081 99.427 27.9134 99.1496 27.6361C98.8723 27.3588 98.4403 27.2201 97.8536 27.2201C97.363 27.2201 96.963 27.3268 96.6536 27.5401C96.3443 27.7534 96.083 28.0254 95.8696 28.3561L94.8296 27.4121C95.107 26.9428 95.4963 26.5588 95.9976 26.2601C96.499 25.9508 97.155 25.7961 97.9656 25.7961C99.043 25.7961 99.8696 26.0468 100.446 26.5481C101.022 27.0494 101.31 27.7694 101.31 28.7081V32.8841H102.19V34.3081H101.214ZM97.6936 33.1721C98.2376 33.1721 98.6856 33.0548 99.0376 32.8201C99.3896 32.5748 99.5656 32.2494 99.5656 31.8441V30.6441H98.0936C96.8883 30.6441 96.2856 31.0174 96.2856 31.7641V32.0521C96.2856 32.4254 96.4083 32.7081 96.6536 32.9001C96.9096 33.0814 97.2563 33.1721 97.6936 33.1721ZM103.899 34.3081V25.9881H105.643V27.5881H105.723C105.84 27.1614 106.086 26.7881 106.459 26.4681C106.832 26.1481 107.35 25.9881 108.011 25.9881H108.475V27.6681H107.787C107.094 27.6681 106.56 27.7801 106.187 28.0041C105.824 28.2281 105.643 28.5588 105.643 28.9961V34.3081H103.899ZM112.39 34.3081C111.782 34.3081 111.324 34.1534 111.014 33.8441C110.705 33.5241 110.55 33.0761 110.55 32.5001V27.4121H109.254V25.9881H109.958C110.246 25.9881 110.444 25.9241 110.55 25.7961C110.668 25.6681 110.726 25.4601 110.726 25.1721V23.7161H112.294V25.9881H114.038V27.4121H112.294V32.8841H113.91V34.3081H112.39ZM120.97 32.9321H120.906C120.831 33.1348 120.73 33.3321 120.602 33.5241C120.485 33.7161 120.33 33.8868 120.138 34.0361C119.957 34.1748 119.733 34.2868 119.466 34.3721C119.21 34.4574 118.911 34.5001 118.57 34.5001C117.706 34.5001 117.034 34.2228 116.554 33.6681C116.085 33.1134 115.85 32.3188 115.85 31.2841V25.9881H117.594V31.0601C117.594 32.3508 118.127 32.9961 119.194 32.9961C119.418 32.9961 119.637 32.9694 119.85 32.9161C120.063 32.8521 120.25 32.7614 120.41 32.6441C120.581 32.5268 120.714 32.3774 120.81 32.1961C120.917 32.0148 120.97 31.8014 120.97 31.5561V25.9881H122.714V34.3081H120.97V32.9321ZM125.211 25.9881H126.955V27.3641H127.035C127.217 26.8628 127.51 26.4788 127.915 26.2121C128.331 25.9348 128.817 25.7961 129.371 25.7961C130.427 25.7961 131.243 26.1801 131.819 26.9481C132.395 27.7054 132.683 28.7721 132.683 30.1481C132.683 31.5241 132.395 32.5961 131.819 33.3641C131.243 34.1214 130.427 34.5001 129.371 34.5001C128.817 34.5001 128.331 34.3614 127.915 34.0841C127.51 33.8068 127.217 33.4228 127.035 32.9321H126.955V37.5081H125.211V25.9881ZM128.843 32.9961C129.451 32.9961 129.937 32.8041 130.299 32.4201C130.662 32.0254 130.843 31.5081 130.843 30.8681V29.4281C130.843 28.7881 130.662 28.2761 130.299 27.8921C129.937 27.4974 129.451 27.3001 128.843 27.3001C128.31 27.3001 127.862 27.4334 127.499 27.7001C127.137 27.9561 126.955 28.2974 126.955 28.7241V31.5721C126.955 31.9988 127.137 32.3454 127.499 32.6121C127.862 32.8681 128.31 32.9961 128.843 32.9961ZM138.109 34.3081V32.8361H139.629V24.6121H138.109V23.1401H142.973V24.6121H141.437V32.8361H142.973V34.3081H138.109ZM145.118 34.3081V25.9881H146.862V27.3641H146.942C147.123 26.9161 147.395 26.5428 147.758 26.2441C148.131 25.9454 148.638 25.7961 149.278 25.7961C150.131 25.7961 150.792 26.0788 151.262 26.6441C151.742 27.1988 151.982 27.9934 151.982 29.0281V34.3081H150.238V29.2521C150.238 27.9508 149.715 27.3001 148.67 27.3001C148.446 27.3001 148.222 27.3321 147.998 27.3961C147.784 27.4494 147.592 27.5348 147.422 27.6521C147.251 27.7694 147.112 27.9188 147.006 28.1001C146.91 28.2814 146.862 28.4948 146.862 28.7401V34.3081H145.118ZM159.631 32.9321H159.551C159.37 33.4228 159.071 33.8068 158.655 34.0841C158.25 34.3614 157.77 34.5001 157.215 34.5001C156.159 34.5001 155.343 34.1214 154.767 33.3641C154.191 32.5961 153.903 31.5241 153.903 30.1481C153.903 28.7721 154.191 27.7054 154.767 26.9481C155.343 26.1801 156.159 25.7961 157.215 25.7961C157.77 25.7961 158.25 25.9348 158.655 26.2121C159.071 26.4788 159.37 26.8628 159.551 27.3641H159.631V22.4681H161.375V34.3081H159.631V32.9321ZM157.743 32.9961C158.276 32.9961 158.724 32.8681 159.087 32.6121C159.45 32.3454 159.631 31.9988 159.631 31.5721V28.7241C159.631 28.2974 159.45 27.9561 159.087 27.7001C158.724 27.4334 158.276 27.3001 157.743 27.3001C157.135 27.3001 156.65 27.4974 156.287 27.8921C155.924 28.2761 155.743 28.7881 155.743 29.4281V30.8681C155.743 31.5081 155.924 32.0254 156.287 32.4201C156.65 32.8041 157.135 32.9961 157.743 32.9961ZM164.748 24.5001C164.385 24.5001 164.118 24.4148 163.948 24.2441C163.788 24.0734 163.708 23.8548 163.708 23.5881V23.3161C163.708 23.0494 163.788 22.8308 163.948 22.6601C164.118 22.4894 164.385 22.4041 164.748 22.4041C165.11 22.4041 165.372 22.4894 165.532 22.6601C165.692 22.8308 165.772 23.0494 165.772 23.3161V23.5881C165.772 23.8548 165.692 24.0734 165.532 24.2441C165.372 24.4148 165.11 24.5001 164.748 24.5001ZM163.868 25.9881H165.612V34.3081H163.868V25.9881ZM174.198 34.3081C173.739 34.3081 173.387 34.1801 173.142 33.9241C172.897 33.6574 172.747 33.3214 172.694 32.9161H172.614C172.454 33.4388 172.161 33.8334 171.734 34.1001C171.307 34.3668 170.79 34.5001 170.182 34.5001C169.318 34.5001 168.651 34.2761 168.182 33.8281C167.723 33.3801 167.494 32.7774 167.494 32.0201C167.494 31.1881 167.793 30.5641 168.39 30.1481C168.998 29.7321 169.883 29.5241 171.046 29.5241H172.55V28.8201C172.55 28.3081 172.411 27.9134 172.134 27.6361C171.857 27.3588 171.425 27.2201 170.838 27.2201C170.347 27.2201 169.947 27.3268 169.638 27.5401C169.329 27.7534 169.067 28.0254 168.854 28.3561L167.814 27.4121C168.091 26.9428 168.481 26.5588 168.982 26.2601C169.483 25.9508 170.139 25.7961 170.95 25.7961C172.027 25.7961 172.854 26.0468 173.43 26.5481C174.006 27.0494 174.294 27.7694 174.294 28.7081V32.8841H175.174V34.3081H174.198ZM170.678 33.1721C171.222 33.1721 171.67 33.0548 172.022 32.8201C172.374 32.5748 172.55 32.2494 172.55 31.8441V30.6441H171.078C169.873 30.6441 169.27 31.0174 169.27 31.7641V32.0521C169.27 32.4254 169.393 32.7081 169.638 32.9001C169.894 33.0814 170.241 33.1721 170.678 33.1721ZM188.073 34.3081H180.489V32.5801L184.057 29.3961C184.622 28.8841 185.054 28.3988 185.353 27.9401C185.662 27.4708 185.817 26.9801 185.817 26.4681V26.2601C185.817 25.7161 185.651 25.2894 185.321 24.9801C185.001 24.6708 184.563 24.5161 184.009 24.5161C183.699 24.5161 183.427 24.5641 183.193 24.6601C182.969 24.7454 182.771 24.8681 182.601 25.0281C182.43 25.1881 182.286 25.3748 182.169 25.5881C182.062 25.8014 181.977 26.0308 181.913 26.2761L180.329 25.6681C180.446 25.3161 180.606 24.9801 180.809 24.6601C181.011 24.3294 181.267 24.0361 181.577 23.7801C181.886 23.5241 182.249 23.3214 182.665 23.1721C183.091 23.0228 183.587 22.9481 184.153 22.9481C184.718 22.9481 185.225 23.0334 185.673 23.2041C186.121 23.3641 186.494 23.5934 186.793 23.8921C187.102 24.1801 187.337 24.5268 187.497 24.9321C187.657 25.3374 187.737 25.7801 187.737 26.2601C187.737 26.7081 187.667 27.1241 187.529 27.5081C187.39 27.8921 187.198 28.2548 186.953 28.5961C186.707 28.9374 186.419 29.2628 186.089 29.5721C185.769 29.8814 185.427 30.1961 185.065 30.5161L182.441 32.7721H188.073V34.3081ZM193.81 34.5001C193.117 34.5001 192.514 34.3721 192.002 34.1161C191.49 33.8494 191.069 33.4708 190.738 32.9801C190.408 32.4894 190.162 31.8868 190.002 31.1721C189.842 30.4574 189.762 29.6414 189.762 28.7241C189.762 27.8174 189.842 27.0068 190.002 26.2921C190.162 25.5668 190.408 24.9588 190.738 24.4681C191.069 23.9774 191.49 23.6041 192.002 23.3481C192.514 23.0814 193.117 22.9481 193.81 22.9481C195.197 22.9481 196.216 23.4548 196.866 24.4681C197.528 25.4814 197.858 26.9001 197.858 28.7241C197.858 30.5481 197.528 31.9668 196.866 32.9801C196.216 33.9934 195.197 34.5001 193.81 34.5001ZM193.81 32.9641C194.194 32.9641 194.52 32.8894 194.786 32.7401C195.064 32.5801 195.288 32.3561 195.458 32.0681C195.629 31.7801 195.752 31.4388 195.826 31.0441C195.901 30.6388 195.938 30.1908 195.938 29.7001V27.7481C195.938 27.2574 195.901 26.8148 195.826 26.4201C195.752 26.0148 195.629 25.6681 195.458 25.3801C195.288 25.0921 195.064 24.8734 194.786 24.7241C194.52 24.5641 194.194 24.4841 193.81 24.4841C193.426 24.4841 193.096 24.5641 192.818 24.7241C192.552 24.8734 192.333 25.0921 192.162 25.3801C191.992 25.6681 191.869 26.0148 191.794 26.4201C191.72 26.8148 191.682 27.2574 191.682 27.7481V29.7001C191.682 30.1908 191.72 30.6388 191.794 31.0441C191.869 31.4388 191.992 31.7801 192.162 32.0681C192.333 32.3561 192.552 32.5801 192.818 32.7401C193.096 32.8894 193.426 32.9641 193.81 32.9641ZM207.26 34.3081H199.676V32.5801L203.244 29.3961C203.809 28.8841 204.241 28.3988 204.54 27.9401C204.849 27.4708 205.004 26.9801 205.004 26.4681V26.2601C205.004 25.7161 204.839 25.2894 204.508 24.9801C204.188 24.6708 203.751 24.5161 203.196 24.5161C202.887 24.5161 202.615 24.5641 202.38 24.6601C202.156 24.7454 201.959 24.8681 201.788 25.0281C201.617 25.1881 201.473 25.3748 201.356 25.5881C201.249 25.8014 201.164 26.0308 201.1 26.2761L199.516 25.6681C199.633 25.3161 199.793 24.9801 199.996 24.6601C200.199 24.3294 200.455 24.0361 200.764 23.7801C201.073 23.5241 201.436 23.3214 201.852 23.1721C202.279 23.0228 202.775 22.9481 203.34 22.9481C203.905 22.9481 204.412 23.0334 204.86 23.2041C205.308 23.3641 205.681 23.5934 205.98 23.8921C206.289 24.1801 206.524 24.5268 206.684 24.9321C206.844 25.3374 206.924 25.7801 206.924 26.2601C206.924 26.7081 206.855 27.1241 206.716 27.5081C206.577 27.8921 206.385 28.2548 206.14 28.5961C205.895 28.9374 205.607 29.2628 205.276 29.5721C204.956 29.8814 204.615 30.1961 204.252 30.5161L201.628 32.7721H207.26V34.3081ZM216.854 34.3081H209.27V32.5801L212.838 29.3961C213.403 28.8841 213.835 28.3988 214.134 27.9401C214.443 27.4708 214.598 26.9801 214.598 26.4681V26.2601C214.598 25.7161 214.432 25.2894 214.102 24.9801C213.782 24.6708 213.344 24.5161 212.79 24.5161C212.48 24.5161 212.208 24.5641 211.974 24.6601C211.75 24.7454 211.552 24.8681 211.382 25.0281C211.211 25.1881 211.067 25.3748 210.95 25.5881C210.843 25.8014 210.758 26.0308 210.694 26.2761L209.11 25.6681C209.227 25.3161 209.387 24.9801 209.59 24.6601C209.792 24.3294 210.048 24.0361 210.358 23.7801C210.667 23.5241 211.03 23.3214 211.446 23.1721C211.872 23.0228 212.368 22.9481 212.934 22.9481C213.499 22.9481 214.006 23.0334 214.454 23.2041C214.902 23.3641 215.275 23.5934 215.574 23.8921C215.883 24.1801 216.118 24.5268 216.278 24.9321C216.438 25.3374 216.518 25.7801 216.518 26.2601C216.518 26.7081 216.448 27.1241 216.31 27.5081C216.171 27.8921 215.979 28.2548 215.734 28.5961C215.488 28.9374 215.2 29.2628 214.87 29.5721C214.55 29.8814 214.208 30.1961 213.846 30.5161L211.222 32.7721H216.854V34.3081Z" fill="#030A21"/>
</svg>
