<svg width="77" height="24" viewBox="0 0 77 24" fill="none" xmlns="http://www.w3.org/2000/svg">
<path fill-rule="evenodd" clip-rule="evenodd" d="M47.9429 18.9702C43.4939 22.2106 37.0487 23.9865 31.4949 23.9865C23.7145 23.9865 16.7055 21.1305 11.406 16.2682C10.9893 15.8829 11.3601 15.4194 11.861 15.7281C17.5824 19.0468 24.6569 21.054 31.9653 21.054C36.8948 21.054 42.3125 20.0504 47.2999 17.8901C48.0483 17.5805 48.6777 18.4293 47.9429 18.9702Z" fill="#FF9900"/>
<path fill-rule="evenodd" clip-rule="evenodd" d="M49.7946 16.8087C49.2248 16.1138 46.0345 16.5 44.5997 16.6539C44.166 16.7305 44.0979 16.3452 44.4883 16.0365C47.0339 14.2614 51.2073 14.8015 51.6912 15.3416C52.1786 15.9591 51.5628 20.2048 49.1763 22.2111C48.8089 22.5198 48.4619 22.2877 48.6235 21.9024C49.1618 20.5901 50.3636 17.5801 49.7946 16.8079V16.8087Z" fill="#FF9900"/>
<path fill-rule="evenodd" clip-rule="evenodd" d="M44.6979 3.37971V1.60385C44.7013 1.37251 44.8977 1.14118 45.1401 1.14118H52.9265C53.1731 1.14118 53.3764 1.37251 53.3764 1.60385V3.14752C53.373 3.37971 53.1621 3.68844 52.7896 4.22766L48.7565 10.0179C50.2551 9.94135 51.8378 10.1718 53.1987 10.9441C53.5065 11.098 53.5899 11.4068 53.612 11.639V13.4914C53.612 13.7227 53.333 14.0314 53.0396 13.8766C50.642 12.6417 47.4637 12.4878 44.8127 13.8766C44.5414 14.0314 44.2564 13.7227 44.2564 13.4914V11.7155C44.2564 11.4068 44.2624 10.9441 44.5473 10.5588L49.2208 3.76583H45.1512C44.9003 3.76583 44.7004 3.61189 44.6979 3.38056V3.37971ZM60.1005 3.45625C58.3544 3.45625 58.243 5.84957 58.243 7.31584C58.243 8.78211 58.2209 12.0234 60.0801 12.0234C61.9172 12.0234 62.0022 9.39958 62.0022 7.85591C62.0022 6.85232 61.9572 5.61738 61.6501 4.61464C61.3848 3.76498 60.8523 3.45625 60.1005 3.45625ZM60.0801 0.986385C63.5978 0.986385 65.4978 3.99717 65.4978 7.85591C65.4978 11.5607 63.3979 14.4933 60.0801 14.4933C56.6313 14.4933 54.7491 11.4833 54.7491 7.70112C54.7491 3.91978 56.6517 0.986385 60.0801 0.986385ZM40.8825 14.2619C40.7251 14.3385 40.4402 14.3385 40.3212 14.2619C39.5123 13.6444 38.962 12.7183 38.962 12.7183C37.6608 14.0306 36.7414 14.4159 35.0582 14.4159C33.0638 14.4159 31.5116 13.1818 31.5116 10.7119C31.5116 8.78126 32.5543 7.46978 34.0376 6.85232C35.3219 6.23485 37.1199 6.15831 38.4926 6.00351C38.4926 6.00351 38.6057 4.53724 38.2042 3.99632C37.8947 3.53365 37.3622 3.37971 36.8749 3.37971C35.9946 3.37971 35.1458 3.84238 34.9783 4.76858C34.9298 4.99992 34.7359 5.23211 34.5301 5.23211L32.2609 4.99992C32.0874 4.92337 31.851 4.76858 31.908 4.45985C32.4378 1.68125 34.9528 0.832443 37.2083 0.832443C38.3616 0.832443 39.8678 1.14118 40.7762 1.98998C41.9295 3.07012 41.8189 4.53724 41.8189 6.08091V9.78571C41.8189 10.9424 42.2799 11.4059 42.7128 12.0234C42.8642 12.2556 42.8982 12.4869 42.7043 12.6409C42.2203 13.027 40.8825 14.2619 40.8825 14.2619ZM38.4926 8.39598C38.4926 9.32303 38.5155 10.0944 38.0503 10.9432C37.6752 11.6381 37.0765 12.0234 36.4105 12.0234C35.5013 12.0234 34.9698 11.3294 34.9698 10.3258C34.9698 8.24204 36.7805 7.93331 38.4926 7.93331V8.39598ZM9.8246 14.2619C9.66811 14.3385 9.37979 14.3385 9.26667 14.2619C8.45784 13.6444 7.90756 12.7183 7.90756 12.7183C6.60629 14.0306 5.68605 14.4159 4.00375 14.4159C2.00591 14.4159 0.45459 13.1818 0.45459 10.7119C0.45459 8.78126 1.49731 7.46978 2.98059 6.85232C4.26485 6.23485 6.06197 6.15831 7.43468 6.00351C7.43468 6.00351 7.54865 4.53724 7.14721 3.99632C6.83423 3.53365 6.30436 3.37971 5.81702 3.37971C4.9376 3.37971 4.0888 3.84238 3.9204 4.76858C3.87192 4.99992 3.67885 5.23211 3.47388 5.23211L1.20303 4.99992C1.02953 4.92337 0.793091 4.76858 0.850075 4.45985C1.37994 1.68125 3.89488 0.832443 6.15042 0.832443C7.30371 0.832443 8.8108 1.14118 9.71914 1.98998C10.8724 3.07012 10.7619 4.53724 10.7619 6.08091V9.78571C10.7619 10.9424 11.2228 11.4059 11.6557 12.0234C11.8063 12.2556 11.8411 12.4869 11.6472 12.6409C11.1624 13.027 9.8246 14.2619 9.8246 14.2619ZM7.43468 8.39598C7.43468 9.32303 7.45765 10.0944 6.99072 10.9432C6.6148 11.6381 6.01689 12.0234 5.3501 12.0234C4.44176 12.0234 3.90934 11.3294 3.90934 10.3258C3.90934 8.24204 5.72092 7.93331 7.43213 7.93331V8.39598H7.43468ZM16.7503 7.31584C16.7503 5.92612 16.6856 3.99717 18.3883 3.99717C20.0689 3.99717 19.847 6.00436 19.847 7.31584L19.8495 13.7992C19.8495 14.0306 20.0366 14.2619 20.2739 14.2619H22.64C22.8943 14.2619 23.0959 14.0306 23.0959 13.7992V7.31584C23.0959 6.62098 23.0738 5.61738 23.3187 4.99992C23.5628 4.38245 24.1582 3.99632 24.7331 3.99632C25.4203 3.99632 25.9493 4.22851 26.1271 5.07731C26.2376 5.54084 26.1917 6.85232 26.1917 7.31584V13.7992C26.1917 14.0306 26.3788 14.2619 26.6161 14.2619H28.9831C29.2365 14.2619 29.4381 14.0306 29.4381 13.7992L29.4415 6.08091C29.4415 4.76858 29.5946 3.30231 28.8436 2.29871C28.181 1.37251 27.0975 0.909839 26.1007 0.909839C24.7076 0.909839 23.4038 1.68125 22.828 3.22491C22.1646 1.68125 21.2367 0.909839 19.7559 0.909839C18.2973 0.909839 17.2121 1.68125 16.6363 3.22491H16.5912V1.68125C16.5912 1.37251 16.3913 1.21857 16.149 1.21857H13.9402C13.6952 1.21857 13.4979 1.37251 13.4979 1.68125V13.7992C13.4979 14.0306 13.6978 14.2619 13.9402 14.2619H16.3063C16.5512 14.2619 16.7486 14.0306 16.7486 13.7992L16.7511 7.31584H16.7503ZM70.5209 13.7992C70.5209 14.0306 70.321 14.2619 70.0786 14.2619H67.7125C67.4676 14.2619 67.2702 14.0306 67.2702 13.7992V1.68125C67.2702 1.37251 67.4701 1.21857 67.7125 1.21857H69.9C70.1552 1.21857 70.3414 1.44991 70.3414 1.52731V3.37971H70.3874C71.0507 1.75864 71.9787 0.985534 73.6167 0.985534C74.679 0.985534 75.7175 1.37166 76.3809 2.37526C77 3.37971 77 4.99992 77 6.15831V13.8758C76.9745 14.1071 76.7806 14.2619 76.5467 14.2619H74.1721C73.9518 14.2619 73.7758 14.1071 73.7503 13.8758L73.7536 6.46704C73.7536 3.99717 72.8096 3.99717 72.267 3.99717C71.6342 3.99717 71.1247 4.45985 70.9019 4.92337C70.5719 5.69478 70.5175 6.38964 70.5175 7.23845L70.5209 13.7992Z" fill="black"/>
</svg>
