<svg width="87" height="19" viewBox="0 0 87 19" fill="none" xmlns="http://www.w3.org/2000/svg">
<path d="M21.4383 1.36285C19.2907 1.36285 18.5175 2.86617 18.5175 4.28359V5.14263H18.088C17.7444 5.14263 17.4867 5.40034 17.4867 5.74396C17.4867 6.08757 17.7444 6.34528 18.088 6.34528H18.5175V12.2727C18.5175 12.6163 18.7753 12.9169 19.1618 12.9169C19.5484 12.9169 19.8061 12.6592 19.8061 12.2727V6.30233H21.1806C21.5242 6.30233 21.7819 6.04462 21.7819 5.701C21.7819 5.35739 21.5242 5.09968 21.1806 5.09968H19.8061V4.24064C19.8061 3.4675 20.1068 2.52256 21.4812 2.52256C21.8248 2.52256 22.0826 2.26485 22.0826 1.96418C22.0396 1.62057 21.7819 1.36285 21.4383 1.36285ZM26.3348 4.92787C25.4758 4.88492 24.7026 5.27148 24.1872 5.95872V5.6151C24.1872 5.27148 23.9295 4.97082 23.5429 4.97082C23.1564 4.97082 22.8986 5.27148 22.8986 5.6151V12.2297C22.8986 12.5733 23.1564 12.874 23.5429 12.874C23.9295 12.874 24.1872 12.6163 24.1872 12.2297V8.57879C24.1872 7.03252 25.0033 6.13052 26.3348 6.13052C26.6784 6.13052 26.9361 5.87281 26.9361 5.5292C26.9361 5.18558 26.6355 4.92787 26.3348 4.92787ZM33.9373 8.19222C33.9373 7.46204 33.7225 6.73185 33.336 6.13052C32.7346 5.31444 31.7467 4.84196 30.7159 4.92787C28.5254 4.92787 27.2797 6.38824 27.2797 8.9224C27.2797 11.5425 28.5254 12.9599 30.8877 12.9599C31.8327 13.0028 32.7776 12.6592 33.5078 12.0149C33.6366 11.929 33.7225 11.7572 33.7225 11.5854C33.7225 11.2848 33.4648 11.0271 33.1642 11.0271C33.0353 11.0271 32.9065 11.07 32.8205 11.1559C32.3051 11.5854 31.6179 11.8431 30.9307 11.8431C29.5132 11.8431 28.6113 10.8982 28.5683 9.39488H33.2071C33.9373 9.30897 33.9373 8.62174 33.9373 8.19222ZM30.7589 6.04462C32.0474 6.04462 32.6917 6.7748 32.7346 8.19222H28.5683C28.6972 6.81776 29.4703 6.04462 30.7589 6.04462ZM38.1466 8.27812C37.2017 7.93451 36.4285 7.6768 36.4285 6.98956C36.4285 6.21643 37.2876 6.13052 37.76 6.13052C38.4043 6.08757 39.0486 6.34528 39.4781 6.7748C39.6929 6.98956 40.0794 6.98956 40.2942 6.7748C40.4231 6.64595 40.466 6.51709 40.466 6.34528C40.466 6.21643 40.423 6.08757 40.3371 5.95872C39.6929 5.22853 38.7479 4.79901 37.803 4.88492C36.2138 4.88492 35.2259 5.701 35.2259 6.94661C35.2259 8.49288 36.6003 8.96536 37.803 9.39488C38.705 9.69554 39.5211 9.95325 39.5211 10.6405C39.5211 11.5425 38.4902 11.7143 37.8889 11.7143C37.1587 11.7572 36.4285 11.4566 35.9131 10.9411C35.7842 10.8123 35.6554 10.7693 35.4836 10.7264C35.1829 10.7264 34.9252 10.9841 34.9252 11.2848C34.9252 11.4136 34.9682 11.5425 35.0541 11.6713C35.7842 12.5304 36.8151 12.9599 37.8889 12.9599C39.6929 12.9599 40.7667 12.1009 40.7667 10.7264C40.6808 9.13716 39.3493 8.70764 38.1466 8.27812ZM45.5773 4.88492C44.8042 4.84196 44.031 5.18558 43.5156 5.78691V1.57761C43.5156 1.234 43.2579 0.933334 42.8713 0.933334C42.5277 0.933334 42.27 1.19105 42.27 1.57761V12.2297C42.27 12.5733 42.5277 12.874 42.8713 12.874C43.2149 12.874 43.5156 12.6163 43.5156 12.2297V8.23517C43.5156 6.7748 44.2028 6.04462 45.5773 6.04462C46.9518 6.04462 47.4242 6.64595 47.4242 8.10632V12.2297C47.4242 12.5733 47.6819 12.874 48.0685 12.874C48.4121 12.874 48.6698 12.6163 48.6698 12.2297V7.89156C48.6698 5.91576 47.639 4.88492 45.5773 4.88492ZM59.0642 5.01377C58.8065 5.01377 58.5488 5.18558 58.4629 5.44329L56.6589 10.5116L55.1985 5.44329C55.0697 5.09968 54.7261 4.97082 54.3824 5.05673C54.2106 5.09968 54.0818 5.27148 53.9959 5.44329L52.5355 10.5116L50.8174 5.40034C50.7315 5.14263 50.5168 4.97082 50.2161 5.01377C49.8725 5.01377 49.6148 5.27148 49.6148 5.6151C49.6148 5.701 49.6148 5.78691 49.6577 5.87281L52.063 12.4445C52.1489 12.7022 52.3637 12.874 52.6644 12.874C52.9221 12.874 53.1798 12.7022 53.2657 12.4445L54.6831 7.63384L56.1005 12.4445C56.1864 12.7022 56.4441 12.874 56.7019 12.874C56.9596 12.874 57.2173 12.7022 57.3032 12.4445L59.7085 5.87281C59.7514 5.78691 59.7514 5.701 59.7514 5.6151C59.6655 5.27148 59.4078 5.01377 59.0642 5.01377ZM63.6171 4.88492C61.3407 4.88492 60.0951 6.30233 60.0951 8.87945C60.0951 11.4566 61.3407 12.9169 63.6171 12.9169C65.8936 12.9169 67.1392 11.4995 67.1392 8.87945C67.1392 6.25938 65.8936 4.88492 63.6171 4.88492ZM63.6171 11.7572C62.1138 11.7572 61.3407 10.8123 61.3407 8.87945C61.3407 6.94661 62.1138 6.00167 63.6171 6.00167C65.1204 6.00167 65.8506 6.98956 65.8506 8.87945C65.8506 10.7693 65.1204 11.8002 63.6171 11.7572ZM71.9498 4.92787C71.0908 4.88492 70.3176 5.27148 69.8022 5.95872V5.6151C69.8022 5.27148 69.5445 4.97082 69.2009 4.97082C68.8573 4.97082 68.5566 5.22853 68.5566 5.57215V12.1868C68.5566 12.5304 68.8143 12.831 69.1579 12.831C69.5015 12.831 69.8022 12.5733 69.8022 12.2297V8.57879C69.8022 7.03252 70.6183 6.13052 71.9498 6.13052C72.2934 6.13052 72.5511 5.87281 72.5511 5.5292C72.5511 5.18558 72.2934 4.92787 71.9498 4.92787ZM76.7175 8.19222L79.2946 6.13052C79.4664 6.00167 79.5523 5.82986 79.5523 5.6151C79.5523 5.27148 79.2946 5.01377 78.951 5.01377C78.7792 5.01377 78.6503 5.05672 78.5215 5.18558L74.8276 8.19222V1.57761C74.8276 1.234 74.5699 0.933334 74.2263 0.933334C73.8826 0.933334 73.582 1.19105 73.582 1.53466V12.1868C73.582 12.5304 73.8397 12.831 74.1833 12.831C74.5269 12.831 74.8276 12.5733 74.8276 12.2297V9.65259L75.6866 8.96536L78.5215 12.5733C78.6503 12.7451 78.8651 12.874 79.0369 12.874C79.3805 12.874 79.6382 12.6163 79.6382 12.2727C79.6382 12.1438 79.5953 11.972 79.5093 11.8861L76.7175 8.19222ZM83.7616 8.27812C82.8167 7.93451 82.0435 7.6768 82.0435 6.98956C82.0435 6.21643 82.9026 6.13052 83.375 6.13052C84.0193 6.08757 84.6636 6.34528 85.0931 6.7748C85.222 6.90366 85.3508 6.94661 85.5226 6.94661C85.8233 6.90366 86.0381 6.64595 86.0381 6.34528C86.0381 6.21643 85.9951 6.08757 85.9092 5.95872C85.2649 5.22853 84.32 4.79901 83.375 4.88492C81.7858 4.88492 80.7979 5.701 80.7979 6.94661C80.7979 8.49288 82.1724 8.96536 83.375 9.39488C84.277 9.69554 85.0931 9.95325 85.0931 10.6405C85.0931 11.5425 84.0623 11.7143 83.4609 11.7143C82.7308 11.7572 82.0006 11.4566 81.4851 10.9411C81.3563 10.8123 81.2274 10.7693 81.0556 10.7264C80.755 10.7264 80.4973 10.9841 80.4973 11.2848C80.4973 11.4136 80.5402 11.5425 80.6261 11.6713C81.3563 12.4874 82.3871 12.9169 83.5039 12.874C85.3079 12.874 86.3817 12.0149 86.3817 10.6405C86.2958 9.13716 84.9642 8.70764 83.7616 8.27812Z" fill="#4D4D4D"/>
<path d="M0.650146 11.886C0.864905 13.4322 1.59508 14.8496 2.71182 15.9664L5.20302 13.4752C5.20302 10.8551 6.57747 8.44983 8.85391 7.11833L0.650146 11.886Z" fill="#9B65C3"/>
<path d="M5.20302 13.475C3.91447 13.475 2.66887 13.1314 1.55213 12.4871C1.25147 12.3153 0.950808 12.1006 0.650146 11.8858C0.864905 13.4321 1.59508 14.8495 2.71182 15.9662L5.20302 13.475Z" fill="#9B65C3"/>
<path d="M5.2025 13.4754L2.7113 15.9666C3.82805 17.0833 5.24545 17.8135 6.79171 18.0283L11.5164 9.82449C10.2278 12.058 7.82255 13.4754 5.2025 13.4754Z" fill="#BE63C5"/>
<path d="M6.19038 17.1262C5.54611 16.0095 5.2025 14.7639 5.2025 13.4753L2.7113 15.9665C3.82805 17.0833 5.24545 17.8135 6.79171 18.0282C6.57695 17.7276 6.36219 17.4269 6.19038 17.1262Z" fill="#BF63C6"/>
<path d="M14.523 3.85423L8.85338 7.11856C6.57695 8.4071 3.82804 8.4071 1.55161 7.11856C0.907334 8.2353 0.563721 9.52385 0.563721 10.8124C0.563721 11.156 0.606672 11.5426 0.649624 11.8862C0.950285 12.1009 1.25095 12.3157 1.55161 12.4875C2.66835 13.1318 3.91395 13.4754 5.2025 13.4754L14.6519 4.02604C14.6089 3.98309 14.5659 3.94014 14.523 3.85423Z" fill="#3278B1"/>
<path d="M1.55213 12.4873C2.66887 13.1316 3.91447 13.4752 5.20302 13.4752C5.20302 10.8551 6.57747 8.44983 8.85391 7.11833L0.650146 11.843C0.950808 12.1007 1.25147 12.3155 1.55213 12.4873Z" fill="#3278B2"/>
<path d="M1.55161 7.11833C0.907334 8.23507 0.563721 9.52362 0.563721 10.8122C0.563721 11.1558 0.606672 11.5423 0.649624 11.886L8.85338 7.11833C6.6199 8.44983 3.82804 8.44983 1.55161 7.11833Z" fill="#45A4EC"/>
<path d="M14.6514 4.02582C14.5225 3.89697 14.4366 3.81107 14.3078 3.72516C14.0501 3.55336 13.7065 3.46745 13.4058 3.46745H7.86504C5.24499 3.46745 2.8397 4.88486 1.55115 7.11834C3.82758 8.40689 6.57649 8.40689 8.85292 7.11834C6.57649 8.40689 5.20203 10.8551 5.20203 13.4752C7.82208 13.4752 10.2274 12.1007 11.5589 9.82429L14.8232 4.15468C14.7373 4.11173 14.6943 4.06878 14.6514 4.02582Z" fill="#19BB7D"/>
<path d="M8.85292 7.1184L14.5225 3.85407C14.4366 3.81112 14.3937 3.72522 14.3078 3.68227L1.55115 7.1184C3.82758 8.4499 6.61944 8.4499 8.85292 7.1184Z" fill="#08C7FB"/>
<path d="M13.3628 3.46745H7.86504C5.24499 3.46745 2.8397 4.88486 1.55115 7.11834L14.3078 3.68221C14.0071 3.55336 13.7065 3.46745 13.3628 3.46745Z" fill="#59F2F6"/>
<path d="M11.559 9.82447L14.8233 4.15485C14.7804 4.1119 14.7374 4.06895 14.6945 3.98305L5.24512 13.4324C5.24512 14.721 5.58873 15.9665 6.233 17.0833C6.40481 17.384 6.61957 17.6846 6.83433 17.9853C7.17794 18.0282 7.52155 18.0712 7.86517 18.0712C9.15371 18.0712 10.3993 17.7276 11.5161 17.0833C10.2275 14.8498 10.2275 12.058 11.559 9.82447Z" fill="#DA3757"/>
<path d="M5.20251 13.4754C5.20251 14.7639 5.54613 16.0095 6.1904 17.1263C6.36221 17.4269 6.57697 17.7276 6.79172 18.0283L11.5164 9.82449C10.2279 12.058 7.82256 13.4754 5.20251 13.4754Z" fill="#D33C4E"/>
<path d="M11.5598 9.82449L6.83508 18.0283C7.1787 18.0712 7.52231 18.1142 7.90887 18.1142C9.19742 18.1142 10.443 17.7705 11.5598 17.1263C10.2283 14.8498 10.2283 12.058 11.5598 9.82449Z" fill="#EE5A24"/>
<path d="M14.9525 4.36965C14.8237 4.15489 14.6948 3.98309 14.523 3.85423L8.8534 7.11856C6.57697 8.4071 5.20251 10.8553 5.20251 13.4754C7.82256 13.4754 10.2279 12.1009 11.5594 9.82451C10.2708 12.1009 10.2708 14.8498 11.5594 17.1263C13.7928 15.8377 15.2102 13.4324 15.2102 10.8553V5.31459C15.2102 4.97097 15.1243 4.67031 14.9525 4.36965Z" fill="#8BDF55"/>
<path d="M14.523 3.85423L8.8534 7.11856C6.57697 8.4071 5.20251 10.8553 5.20251 13.4754L14.6519 4.02604C14.6089 3.98309 14.566 3.89718 14.523 3.85423Z" fill="#25C16F"/>
<path d="M5.20251 13.4754C7.82256 13.4754 10.2279 12.1009 11.5594 9.82447L14.8237 4.15485C14.7807 4.1119 14.7378 4.06895 14.6948 3.98305L5.20251 13.4754Z" fill="#8BDF55"/>
<path d="M14.8236 4.15457L11.5593 9.82419C10.2708 12.1006 10.2708 14.8495 11.5593 17.126L14.9954 4.36933C14.9095 4.28343 14.8666 4.24047 14.8236 4.15457Z" fill="#FFBB00"/>
<path d="M11.5593 17.126C13.8358 15.8375 15.2102 13.4322 15.2102 10.8121V5.31432C15.2102 4.97071 15.1243 4.67005 14.9525 4.36938L11.5593 17.126Z" fill="#FFA800"/>
</svg>
