<svg width="65" height="14" viewBox="0 0 65 14" fill="none" xmlns="http://www.w3.org/2000/svg">
<path fill-rule="evenodd" clip-rule="evenodd" d="M19.5749 3.8798C18.1933 3.8798 17.3618 4.55486 17.3618 5.66645C17.3618 6.52681 17.8312 7.12236 19.347 7.65171L19.8432 7.82387C20.7821 8.15474 21.0638 8.43257 21.0638 8.89585C21.0638 9.47825 20.5541 9.83558 19.6956 9.83558C18.9982 9.83558 18.4482 9.62381 17.9251 9.13407C17.7105 8.92231 17.4289 8.92231 17.2143 9.13407L17.2008 9.14737C17.0265 9.31939 17.0265 9.66342 17.2008 9.83558C17.9118 10.5105 18.6897 10.7885 19.6956 10.7885C21.2113 10.7885 22.1369 10.0869 22.1369 8.88255C22.1369 7.94298 21.6673 7.41349 20.2053 6.8973L19.7225 6.72528C18.7299 6.36795 18.4348 6.08998 18.4348 5.62684C18.4348 5.15041 18.8775 4.83268 19.5749 4.83268C20.1517 4.83268 20.6077 5.0313 21.0906 5.45483C21.3052 5.6533 21.6002 5.64 21.8149 5.42823L21.8283 5.41508C22.0027 5.24306 22.0027 4.89889 21.8149 4.74002C21.1577 4.14448 20.487 3.8798 19.5749 3.8798Z" fill="black"/>
<path fill-rule="evenodd" clip-rule="evenodd" d="M34.0207 7.92968V7.95613V8.08854C34.0207 9.09432 33.2964 9.83543 32.1295 9.83543C31.2174 9.83543 30.6674 9.4252 30.6674 8.67079C30.6674 7.94298 31.2577 7.51944 32.277 7.51944H34.0207V7.92968ZM32.4515 3.8798C31.6198 3.8798 30.8417 4.10472 30.0907 4.85913C29.9163 5.04445 29.9163 5.40178 30.0907 5.57379L30.1175 5.60039C30.3188 5.79886 30.6138 5.79886 30.8149 5.58709C31.3649 5.0047 31.9015 4.83268 32.4515 4.83268C33.4305 4.83268 34.0207 5.37532 34.0207 6.2753V6.60617H32.277C30.587 6.60617 29.5945 7.36058 29.5945 8.67079C29.5945 9.90163 30.5467 10.7885 31.888 10.7885C32.8404 10.7885 33.5782 10.4178 34.0342 9.82228V10.1134C34.0342 10.3781 34.2621 10.6031 34.5439 10.6031H34.5707C34.8389 10.6031 35.067 10.3781 35.067 10.1002V6.2753C35.067 4.77978 34.0878 3.8798 32.4515 3.8798Z" fill="black"/>
<path fill-rule="evenodd" clip-rule="evenodd" d="M61.0227 7.92968V7.95613V8.08854C61.0227 9.09432 60.2984 9.83543 59.1314 9.83543C58.2193 9.83543 57.6694 9.4252 57.6694 8.67079C57.6694 7.94298 58.2596 7.51944 59.2789 7.51944H61.0227V7.92968ZM59.4533 3.8798C58.045 3.8798 56.9451 4.70042 56.9451 5.24291C56.9451 5.37532 56.9854 5.50773 57.0793 5.60039L57.1061 5.62684C57.2 5.7195 57.3072 5.7591 57.4414 5.7591C57.6694 5.7591 57.8304 5.58709 58.045 5.37532C58.3132 5.11065 58.7425 4.83268 59.4533 4.83268C60.4324 4.83268 61.0227 5.37532 61.0227 6.2753V6.60617H59.2789C57.5889 6.60617 56.5964 7.36058 56.5964 8.67079C56.5964 9.90163 57.5487 10.7885 58.89 10.7885C59.8424 10.7885 60.5801 10.4178 61.0362 9.82228V10.1134C61.0362 10.3781 61.2641 10.6031 61.5458 10.6031H61.5726C61.8409 10.6031 62.069 10.3781 62.069 10.1002V6.2753C62.069 4.77978 61.0898 3.8798 59.4533 3.8798Z" fill="black"/>
<path fill-rule="evenodd" clip-rule="evenodd" d="M47.7949 7.90269C47.6607 9.12024 47.0438 9.83505 45.9171 9.83505C44.6429 9.83505 44.0124 8.90847 44.0124 7.3336C44.0124 5.75857 44.6429 4.83215 45.9171 4.83215C47.0572 4.83215 47.6742 5.57341 47.7949 6.81741V7.90269ZM48.8412 8.86887V1.0205C48.8412 0.742672 48.6131 0.517605 48.3314 0.517605H48.3046C48.023 0.517605 47.7949 0.742672 47.7949 1.0205V4.819C47.3254 4.21015 46.6279 3.87927 45.7025 3.87927C43.9185 3.87927 42.9395 5.14987 42.9395 7.3336C42.9395 9.51732 43.9185 10.7879 45.7025 10.7879C46.695 10.7879 47.4328 10.4041 47.8888 9.70264C48.0766 10.2584 48.5192 10.6953 48.9484 10.6953C49.2302 10.6953 49.4716 10.4968 49.4716 10.2055C49.4716 9.67618 48.8412 9.75554 48.8412 8.86887Z" fill="black"/>
<path fill-rule="evenodd" clip-rule="evenodd" d="M39.1172 9.83558C37.843 9.83558 37.2126 8.90915 37.2126 7.38718V7.28122C37.2126 5.75925 37.843 4.83283 39.1172 4.83283C40.3646 4.83283 41.0218 5.75925 41.0218 7.33413C41.0218 8.90915 40.3646 9.83558 39.1172 9.83558ZM39.3318 3.8798C38.4062 3.8798 37.6954 4.22398 37.2259 4.84598V4.55486C37.2259 4.29019 36.998 4.06512 36.7296 4.06512H36.7028C36.4212 4.06512 36.1931 4.29019 36.1931 4.55486V12.734C36.1931 13.0119 36.4212 13.237 36.7028 13.237H36.7296C37.0113 13.237 37.2394 13.0119 37.2394 12.734V9.83558C37.7088 10.4576 38.4062 10.7885 39.3318 10.7885C41.1157 10.7885 42.0949 9.518 42.0949 7.33413C42.0949 5.15041 41.1157 3.8798 39.3318 3.8798Z" fill="black"/>
<path fill-rule="evenodd" clip-rule="evenodd" d="M52.9188 4.83268C54.1126 4.83268 54.7162 5.53419 54.7833 6.76503H51.0812C51.2154 5.54734 51.8189 4.83268 52.9188 4.83268ZM55.5479 9.30609C55.3333 9.10762 55.0381 9.08102 54.7966 9.26634C54.2735 9.66342 53.8041 9.83543 53.1335 9.83543C51.8458 9.83543 51.1483 9.02812 51.0679 7.67816H55.1856C55.5747 7.67816 55.8564 7.40019 55.8564 7.01641C55.8564 5.0576 54.904 3.8798 52.9188 3.8798C50.9874 3.8798 49.9814 5.16356 49.9814 7.33413C49.9814 9.50455 51.0679 10.7885 53.1335 10.7885C54.1126 10.7885 54.7966 10.5502 55.5211 9.96784C55.7222 9.80898 55.7355 9.4914 55.5612 9.31939L55.5479 9.30609Z" fill="black"/>
<path fill-rule="evenodd" clip-rule="evenodd" d="M24.1505 10.1002V6.83124C24.1505 5.58709 24.7809 4.83268 25.9612 4.83268C27.1014 4.83268 27.5977 5.46798 27.5977 6.73858V10.1002C27.5977 10.3782 27.8257 10.6031 28.1074 10.6031H28.1342C28.4159 10.6031 28.6439 10.3782 28.6439 10.1002V6.71213C28.6439 4.79308 27.8928 3.8798 26.2028 3.8798C25.2772 3.8798 24.5798 4.22398 24.137 4.84598V4.55486C24.137 4.29019 23.9091 4.06512 23.6409 4.06512H23.6141C23.3323 4.06512 23.1042 4.29019 23.1042 4.55486V10.1002C23.1042 10.3782 23.3323 10.6031 23.6141 10.6031H23.6409C23.9224 10.6031 24.1505 10.3782 24.1505 10.1002Z" fill="black"/>
<path fill-rule="evenodd" clip-rule="evenodd" d="M64.3483 10.6953C64.6301 10.6953 64.8715 10.4968 64.8715 10.2055C64.8715 9.67618 64.2411 9.75554 64.2411 8.86887V1.0205C64.2411 0.742672 64.013 0.517605 63.7313 0.517605H63.7045C63.4228 0.517605 63.1948 0.742672 63.1948 1.0205V9.14684C63.1948 9.9277 63.7716 10.6953 64.3483 10.6953Z" fill="black"/>
<mask id="mask0_1058_11558" style="mask-type:alpha" maskUnits="userSpaceOnUse" x="0" y="1" width="15" height="13">
<path d="M0.707275 13.2501H14.5401V1.17226H0.707275V13.2501Z" fill="#FF2341"/>
</mask>
<g mask="url(#mask0_1058_11558)">
<path fill-rule="evenodd" clip-rule="evenodd" d="M3.59999 12.9062C3.74751 13.1577 3.90851 13.2503 4.20355 13.2503H9.70288C9.99807 13.2503 10.1589 13.1708 10.3467 12.9326L14.5049 7.6386C14.5986 7.51949 14.4914 7.32102 14.3439 7.32102H7.67757C7.38253 7.32102 7.22153 7.22836 7.07401 6.97699L3.7207 1.25944C3.64028 1.12703 3.42566 1.15363 3.37189 1.28589L0.783304 7.46658C0.662591 7.74455 0.6894 7.92987 0.836921 8.18124L3.59999 12.9062Z" fill="#FF2341"/>
</g>
<path fill-rule="evenodd" clip-rule="evenodd" d="M10.5198 6.07676C10.6673 6.32828 10.8283 6.42093 11.1233 6.42093H14.3425C14.5035 6.42093 14.6242 6.22232 14.5437 6.07676L11.4722 0.83579C11.3246 0.584271 11.1636 0.491613 10.8686 0.491613H4.72526C4.56441 0.491613 4.4437 0.69008 4.52413 0.83579L6.12035 3.56216C6.26787 3.81353 6.42872 3.90619 6.72392 3.90619H9.25889L10.5198 6.07676Z" fill="#FF2341"/>
</svg>
