<svg width="62" height="17" viewBox="0 0 62 17" fill="none" xmlns="http://www.w3.org/2000/svg">
<path d="M31.7 7.02969H32.9709V4.7623H33.8725V3.84587H30.7983V4.7623H31.7V7.02969Z" fill="#007DC5"/>
<path d="M34.808 7.0296L35.4558 5.12562L36.1027 7.0296H37.346L36.1273 3.84577H34.7833L33.5657 7.0296H34.808Z" fill="#007DC5"/>
<path d="M37.9435 7.0296H39.2145V4.76221H40.1161V3.84577H37.0419V4.76221H37.9435V7.0296Z" fill="#007DC5"/>
<path d="M41.0547 7.0296L41.7025 5.12562L42.3494 7.0296H43.5927L42.375 3.84577H41.03L39.8124 7.0296H41.0547Z" fill="#007DC5"/>
<path d="M53.2496 9.30558C53.4066 9.66603 53.614 10.0561 53.8204 10.4037L54.6519 11.8041H55.2543V8.62023H54.7161V9.73121C54.7161 10.2181 54.7269 10.6279 54.7684 11.0506L54.7575 11.0535C54.6104 10.7079 54.4257 10.3376 54.2154 9.98698L53.3928 8.62023H52.7281V11.8041H53.2654V10.6654C53.2654 10.143 53.2575 9.72232 53.2348 9.30854L53.2496 9.30558Z" fill="#007DC5"/>
<path d="M50.3615 10.9044H51.3727L51.6611 11.8041H52.2852L51.2513 8.62023H50.5116L49.4895 11.8041H50.0909L50.3615 10.9044ZM50.7022 9.67887C50.7585 9.48926 50.8069 9.26904 50.8533 9.0824H50.8632C50.9116 9.26707 50.9639 9.48432 51.0241 9.68084L51.275 10.4659H50.4543L50.7022 9.67887Z" fill="#007DC5"/>
<path d="M40.883 11.3728C40.5868 11.3728 40.3014 11.278 40.1137 11.1694L39.9844 11.6513C40.1582 11.758 40.5078 11.8547 40.8445 11.8547C41.6662 11.8547 42.0523 11.4104 42.0523 10.8978C42.0523 10.4406 41.7866 10.1621 41.2336 9.95176C40.809 9.78981 40.6243 9.67427 40.6243 9.43034C40.6243 9.24271 40.7813 9.04718 41.1507 9.04718C41.4499 9.04718 41.6721 9.13803 41.7866 9.19827L41.9259 8.72919C41.76 8.64525 41.5072 8.57217 41.1625 8.57217C40.4722 8.57217 40.0357 8.96521 40.0357 9.48663C40.0357 9.94288 40.3715 10.2253 40.8978 10.412C41.2998 10.5581 41.4617 10.7003 41.4617 10.9403C41.4617 11.199 41.2534 11.3728 40.883 11.3728Z" fill="#007DC5"/>
<path d="M32.5275 9.05135C32.7872 9.05135 32.9996 9.10863 33.1477 9.17578L33.2741 8.71263C33.1556 8.64844 32.886 8.57141 32.5028 8.57141C31.5301 8.57141 30.7983 9.20343 30.7983 10.2502C30.7983 11.219 31.4136 11.855 32.4238 11.855C32.809 11.855 33.1121 11.7789 33.2494 11.7098L33.1536 11.2516C33.0005 11.3207 32.7547 11.3671 32.5186 11.3671C31.8185 11.3671 31.4106 10.9227 31.4106 10.2206C31.4106 9.45624 31.8777 9.05135 32.5275 9.05135Z" fill="#007DC5"/>
<path d="M48.7822 11.8041V9.10906H49.6996V8.62023H47.291V9.10906H48.2005V11.8041H48.7822Z" fill="#007DC5"/>
<path d="M60.4032 8.62023L60.0201 9.43594C59.9114 9.66702 59.8235 9.86453 59.7445 10.068H59.7347C59.6478 9.85268 59.5648 9.67097 59.4572 9.43692L59.078 8.62023H58.4124L59.4196 10.4788V11.8041H60.0013V10.463L61.059 8.62122H60.4032V8.62023Z" fill="#007DC5"/>
<path d="M34.9583 8.56982C34.0596 8.56982 33.4424 9.26011 33.4424 10.2378C33.4424 11.17 34.0112 11.8583 34.9118 11.8583H34.9168C35.7888 11.8583 36.4356 11.248 36.4356 10.1815C36.4336 9.27097 35.8865 8.56982 34.9583 8.56982ZM34.9355 11.3922H34.9306C34.3746 11.3922 34.0497 10.857 34.0517 10.2239C34.0507 9.58896 34.3568 9.03495 34.9375 9.03495C35.5182 9.03495 35.8164 9.60278 35.8164 10.2032C35.8154 10.8688 35.4975 11.3922 34.9355 11.3922Z" fill="#007DC5"/>
<path d="M57.4817 9.05135C57.7415 9.05135 57.9538 9.10863 58.1019 9.17578L58.2283 8.71263C58.1098 8.64844 57.8402 8.57141 57.4571 8.57141C56.4843 8.57141 55.7526 9.20343 55.7526 10.2502C55.7526 11.219 56.3678 11.855 57.3781 11.855C57.7632 11.855 58.0664 11.7799 58.2036 11.7098L58.1078 11.2516C57.9548 11.3207 57.7089 11.3671 57.4729 11.3671C56.7727 11.3671 56.3648 10.9227 56.3648 10.2206C56.3648 9.45624 56.8319 9.05135 57.4817 9.05135Z" fill="#007DC5"/>
<path d="M46.3058 8.62023H45.7241V11.8041H47.6153V11.3162H46.3058V8.62023Z" fill="#007DC5"/>
<path d="M45.0633 10.4398V8.62178H44.4816V10.4784C44.4816 11.1025 44.2298 11.3899 43.8111 11.3899C43.4171 11.3899 43.1583 11.1005 43.1583 10.4784V8.62178H42.5767V10.4438C42.5767 11.4452 43.0556 11.8589 43.7894 11.8589C44.5587 11.8579 45.0633 11.4205 45.0633 10.4398Z" fill="#007DC5"/>
<path d="M39.4572 8.62023H38.9189V9.73121C38.9189 10.2181 38.9298 10.6279 38.9713 11.0506L38.9604 11.0535C38.8133 10.7079 38.6286 10.3376 38.4183 9.98698L37.5956 8.62023H36.931V11.8041H37.4692V10.6654C37.4692 10.143 37.4613 9.72232 37.4386 9.30953L37.4534 9.30657C37.6105 9.66702 37.8178 10.0571 38.0242 10.4047L38.8557 11.805H39.4581V8.62023H39.4572Z" fill="#007DC5"/>
<path d="M41.9481 13.3962H41.3665V16.58H41.9481V13.3962Z" fill="#007DC5"/>
<path d="M37.3667 15.0869V15.074C37.6639 14.9684 37.9404 14.6919 37.9404 14.285C37.9404 14.0144 37.8417 13.7952 37.6689 13.651C37.4556 13.4732 37.0882 13.3962 36.6942 13.3962C36.3001 13.3962 36.0394 13.4239 35.8192 13.4643V16.58H36.392V15.2814H36.6823C37.0102 15.2893 37.1603 15.4226 37.2511 15.8344C37.339 16.2275 37.4151 16.4882 37.4635 16.58H38.056C37.9928 16.4566 37.9069 16.0942 37.8071 15.6991C37.7281 15.392 37.5958 15.1738 37.3667 15.0869ZM36.7337 14.8578H36.392V13.8594C36.4502 13.8445 36.5678 13.8307 36.7505 13.8307C37.1238 13.8317 37.3657 13.9927 37.3657 14.3373C37.3657 14.6514 37.1247 14.8578 36.7337 14.8578Z" fill="#007DC5"/>
<path d="M39.9395 14.852C39.816 15.2381 39.7005 15.6272 39.6156 16.0024H39.6057C39.5227 15.6173 39.4141 15.245 39.2936 14.8431L38.8591 13.3953H38.2251L39.2551 16.5792H39.9217L41.0218 13.3953H40.4026L39.9395 14.852Z" fill="#007DC5"/>
<path d="M45.9703 15.1669H47.1702V14.6928H45.9703V13.8742H47.2413V13.3962H45.3887V16.579H47.3114V16.1011H45.9703V15.1669Z" fill="#007DC5"/>
<path d="M44.1753 13.8258C44.4351 13.8258 44.6474 13.8831 44.7955 13.9502L44.9219 13.4871C44.8034 13.4229 44.5338 13.3458 44.1507 13.3458C43.1779 13.3458 42.4462 13.9779 42.4462 15.0246C42.4462 15.9934 43.0614 16.6294 44.0717 16.6294C44.4568 16.6294 44.76 16.5543 44.8972 16.4842L44.8014 16.026C44.6474 16.0951 44.4025 16.1416 44.1665 16.1416C43.4663 16.1416 43.0584 15.6972 43.0584 14.995C43.0584 14.2307 43.5255 13.8258 44.1753 13.8258Z" fill="#007DC5"/>
<path d="M32.0454 14.7261C31.6198 14.5642 31.4361 14.4486 31.4361 14.2047C31.4361 14.0171 31.5931 13.8215 31.9614 13.8215C32.2607 13.8215 32.4829 13.9124 32.5974 13.9726L32.7367 13.5035C32.5708 13.4196 32.3179 13.3465 31.9733 13.3465C31.283 13.3465 30.8465 13.7396 30.8465 14.261C30.8465 14.7172 31.1823 14.9997 31.7086 15.1863C32.1106 15.3325 32.2725 15.4747 32.2725 15.7146C32.2725 15.9754 32.0651 16.1492 31.6938 16.1492C31.3976 16.1492 31.1122 16.0544 30.9245 15.9457L30.7952 16.4276C30.969 16.5343 31.3186 16.6311 31.6553 16.6311C32.4769 16.6311 32.8631 16.1867 32.8631 15.6742C32.8641 15.215 32.5984 14.9365 32.0454 14.7261Z" fill="#007DC5"/>
<path d="M33.9681 15.1669H35.168V14.6928H33.9681V13.8742H35.2401V13.3962H33.3865V16.579H35.3102V16.1011H33.9681V15.1669Z" fill="#007DC5"/>
<path d="M48.9316 14.7262C48.507 14.5643 48.3223 14.4487 48.3223 14.2048C48.3223 14.0172 48.4793 13.8216 48.8477 13.8216C49.1469 13.8216 49.3691 13.9125 49.4837 13.9727L49.6229 13.5036C49.457 13.4197 49.2042 13.3466 48.8595 13.3466C48.1692 13.3466 47.7328 13.7397 47.7328 14.2611C47.7328 14.7173 48.0685 14.9998 48.5949 15.1864C48.9968 15.3326 49.1588 15.4748 49.1588 15.7147C49.1588 15.9755 48.9514 16.1493 48.5801 16.1493C48.2838 16.1493 47.9984 16.0545 47.8108 15.9458L47.6814 16.4277C47.8552 16.5344 48.2048 16.6312 48.5415 16.6312C49.3632 16.6312 49.7493 16.1868 49.7493 15.6743C49.7503 15.215 49.4846 14.9366 48.9316 14.7262Z" fill="#007DC5"/>
<path d="M0.810669 6.02384C0.810669 4.58203 1.74784 3.71695 3.11756 3.71695V1.26588C3.11756 0.544976 2.63663 0.064045 1.96411 0.064045C1.2916 0.064045 0.810669 0.544976 0.810669 1.26588V6.02384Z" fill="url(#paint0_linear_1058_11505)"/>
<path d="M4.89612 16.6681C5.47284 16.6681 6.00117 16.5723 6.4821 16.4034C4.05473 16.8123 3.11756 15.1542 3.11756 13.2799V5.59088H5.92908C6.57789 5.59088 7.01044 5.20673 7.01044 4.6537C7.01044 4.10068 6.57789 3.71653 5.92908 3.71653H3.11756C1.74784 3.71653 0.810669 4.58161 0.810669 6.02342V12.631C0.810669 15.2747 2.32457 16.6681 4.89612 16.6681Z" fill="url(#paint1_linear_1058_11505)"/>
<path d="M6.48381 16.4041C7.44468 16.0436 8.19027 15.3711 8.67022 14.3856L7.58886 12.4391C7.10793 13.8809 6.26754 14.6502 5.11409 14.6502C3.91226 14.6502 3.11926 13.953 3.11926 12.367V13.2805C3.11926 15.1549 4.05644 16.8129 6.48381 16.4041Z" fill="url(#paint2_linear_1058_11505)"/>
<path d="M16.3565 16.0194C10.8776 16.8361 9.14748 13.9051 9.14748 10.1327C9.14748 7.39324 10.8293 5.51889 13.2566 5.51889C14.1454 5.51889 14.891 5.71146 15.5635 6.02352C15.8756 6.1677 16.1402 6.21609 16.3802 6.21609C16.9569 6.21609 17.3411 5.83194 17.3411 5.25522C17.3411 4.89477 17.1248 4.53431 16.6202 4.29434C15.7067 3.8381 14.5296 3.57344 13.2556 3.57344C9.45855 3.57344 6.8396 6.26448 6.8396 10.1811C6.8396 14.0255 9.36276 16.6929 13.4235 16.6929C14.5306 16.6919 15.4914 16.4756 16.3565 16.0194Z" fill="url(#paint3_linear_1058_11505)"/>
<path d="M6.84277 10.1803C6.84277 6.26369 9.46173 3.57264 13.2588 3.57264C14.5327 3.57264 15.7099 3.8373 16.6234 4.29355C17.128 4.53352 17.3443 4.89397 17.3443 5.25442C17.3443 5.83114 16.9601 6.2153 16.3834 6.2153C16.1434 6.2153 15.8788 6.16691 15.5667 6.02273C14.75 5.63857 13.957 5.51809 13.2598 5.51809C9.91797 5.51908 6.84277 7.6334 6.84277 10.1803Z" fill="url(#paint4_linear_1058_11505)"/>
<path d="M21.189 4.34245C20.9727 4.55873 20.8522 4.82339 20.8522 5.13545C20.8522 5.92844 21.5968 7.10559 23.327 8.30742L25.2971 9.67714C26.7389 10.6864 27.3156 11.6473 27.3156 13.0891C27.3156 14.1221 26.9068 15.0118 26.2343 15.6359C26.4743 15.4197 26.6184 15.1313 26.6184 14.7472C26.6184 13.9058 25.7771 12.5845 23.9748 11.3352L22.1725 10.086C20.6587 9.02833 20.0582 8.04375 20.0582 6.69773C20.0582 5.90474 20.3466 5.18384 20.8275 4.6555C20.949 4.53404 21.0685 4.43825 21.189 4.34245Z" fill="url(#paint5_linear_1058_11505)"/>
<path d="M19.6252 15.1306C19.6252 15.5148 19.8178 15.8278 20.3224 16.0678C21.0196 16.4046 22.1484 16.6929 23.1577 16.6929C24.4316 16.6929 25.4883 16.3088 26.2339 15.6353C26.4738 15.419 26.618 15.1306 26.618 14.7465C26.618 13.9051 25.7766 12.5838 23.9744 11.3345C24.7911 11.9113 25.1278 12.3922 25.1278 13.0884C25.1278 14.1214 24.3111 14.8186 23.133 14.8186C22.0032 14.8186 21.0424 14.2419 20.514 14.2419C19.9857 14.2419 19.6252 14.6023 19.6252 15.1306Z" fill="url(#paint6_linear_1058_11505)"/>
<path d="M23.3268 8.30671C22.5575 7.75369 22.2218 7.24906 22.2218 6.64863C22.2218 5.87934 22.8469 5.3994 23.7357 5.3994C24.8654 5.3994 25.3938 5.92773 26.0663 5.92773C26.5946 5.92773 26.9551 5.56728 26.9551 5.03895C26.9551 4.65479 26.7625 4.34174 26.2578 4.10177C25.4649 3.71762 24.5998 3.57344 23.6626 3.57344C22.677 3.57344 21.8119 3.8618 21.1878 4.34273C20.9716 4.559 20.8511 4.82366 20.8511 5.13572C20.8511 5.92773 21.5967 7.10488 23.3268 8.30671Z" fill="url(#paint7_linear_1058_11505)"/>
<path d="M9.14819 10.1327C9.14819 13.9051 10.8784 16.8371 16.3572 16.0194C18.1111 15.1059 19.3613 13.2563 20.2254 10.4211L20.73 8.76299C20.2491 8.13787 20.0575 7.44166 20.0575 6.69607C20.0575 5.90307 20.3459 5.18217 20.8268 4.65384C20.1059 5.42313 19.5055 6.55189 19.0246 8.13787L18.4715 9.96383C17.486 13.1842 15.9247 14.7218 13.4973 14.7218C10.83 14.7218 9.14819 12.8721 9.14819 10.1327Z" fill="url(#paint8_linear_1058_11505)"/>
<defs>
<linearGradient id="paint0_linear_1058_11505" x1="1.96442" y1="0.698716" x2="1.96442" y2="5.45646" gradientUnits="userSpaceOnUse">
<stop stop-color="#FFC708"/>
<stop offset="0.9997" stop-color="#F05731"/>
<stop offset="1" stop-color="#F05731"/>
</linearGradient>
<linearGradient id="paint1_linear_1058_11505" x1="4.57963" y1="4.3543" x2="3.33544" y2="13.3563" gradientUnits="userSpaceOnUse">
<stop stop-color="#F80000"/>
<stop offset="1" stop-color="#EE3984"/>
</linearGradient>
<linearGradient id="paint2_linear_1058_11505" x1="2.85384" y1="15.0042" x2="9.36775" y2="12.9372" gradientUnits="userSpaceOnUse">
<stop stop-color="#EE3984"/>
<stop offset="0.9997" stop-color="#7800DA"/>
<stop offset="1" stop-color="#7800DA"/>
</linearGradient>
<linearGradient id="paint3_linear_1058_11505" x1="11.7057" y1="6.85222" x2="14.0858" y2="15.2451" gradientUnits="userSpaceOnUse">
<stop stop-color="#FF0000"/>
<stop offset="0.9994" stop-color="#EE3984"/>
<stop offset="1" stop-color="#EE3984"/>
</linearGradient>
<linearGradient id="paint4_linear_1058_11505" x1="6.84255" y1="6.87669" x2="17.3432" y2="6.87669" gradientUnits="userSpaceOnUse">
<stop stop-color="#FFC708"/>
<stop offset="1" stop-color="#FA3B00"/>
</linearGradient>
<linearGradient id="paint5_linear_1058_11505" x1="20.0597" y1="9.98898" x2="27.3165" y2="9.98898" gradientUnits="userSpaceOnUse">
<stop stop-color="#FF0000"/>
<stop offset="1" stop-color="#EE3984"/>
</linearGradient>
<linearGradient id="paint6_linear_1058_11505" x1="25.911" y1="13.4909" x2="19.5224" y2="15.182" gradientUnits="userSpaceOnUse">
<stop stop-color="#EE3984"/>
<stop offset="1" stop-color="#7800DA"/>
</linearGradient>
<linearGradient id="paint7_linear_1058_11505" x1="20.8516" y1="5.93937" x2="26.9549" y2="5.93937" gradientUnits="userSpaceOnUse">
<stop stop-color="#FFC708"/>
<stop offset="1" stop-color="#F05731"/>
</linearGradient>
<linearGradient id="paint8_linear_1058_11505" x1="12.8494" y1="13.7421" x2="17.2964" y2="6.47661" gradientUnits="userSpaceOnUse">
<stop stop-color="#EE3984"/>
<stop offset="1" stop-color="#7800DA"/>
</linearGradient>
</defs>
</svg>
